<svg xmlns="http://www.w3.org/2000/svg" xmlns:xlink="http://www.w3.org/1999/xlink" width="500" zoomAndPan="magnify" viewBox="0 0 375 374.999991" height="500" preserveAspectRatio="xMidYMid meet" version="1.2"><g id="4d446e6a32"><path style=" stroke:none;fill-rule:nonzero;fill:#ffffff;fill-opacity:1;" d="M 84.828125 49.394531 C 126.386719 80.59375 171.085938 143.851562 187.5 177.800781 C 203.914062 143.855469 248.613281 80.59375 290.171875 49.394531 C 320.160156 26.878906 368.746094 9.460938 368.746094 64.890625 C 368.746094 75.960938 362.398438 157.882812 358.675781 171.179688 C 345.738281 217.417969 298.589844 229.214844 256.648438 222.074219 C 329.957031 234.550781 348.609375 275.882812 308.332031 317.210938 C 231.839844 395.703125 198.390625 297.515625 189.816406 272.359375 C 188.246094 267.746094 187.507812 265.589844 187.5 267.421875 C 187.488281 265.589844 186.753906 267.746094 185.183594 272.359375 C 176.609375 297.515625 143.160156 395.703125 66.664062 317.210938 C 26.390625 275.882812 45.039062 234.550781 118.351562 222.074219 C 76.410156 229.214844 29.257812 217.417969 16.320312 171.179688 C 12.597656 157.878906 6.253906 75.957031 6.253906 64.890625 C 6.253906 9.460938 54.839844 26.878906 84.824219 49.394531 Z M 84.828125 49.394531 "/></g></svg>