<svg xmlns="http://www.w3.org/2000/svg" xmlns:xlink="http://www.w3.org/1999/xlink" width="500" zoomAndPan="magnify" viewBox="0 0 375 374.999991" height="500" preserveAspectRatio="xMidYMid meet" version="1.2"><defs><clipPath id="92418778e8"><path d="M 0 0 L 372.75 0 L 372.75 375 L 0 375 Z M 0 0 "/></clipPath></defs><g id="6080dfb45f"><g clip-rule="nonzero" clip-path="url(#92418778e8)"><path style=" stroke:none;fill-rule:evenodd;fill:#000000;fill-opacity:1;" d="M 318.4375 54.429688 C 283.402344 19.347656 236.804688 0.0195312 187.15625 0 C 84.851562 0 1.59375 83.253906 1.558594 185.585938 C 1.539062 218.296875 10.089844 250.226562 26.332031 278.367188 L 0 374.546875 L 98.390625 348.742188 C 125.496094 363.53125 156.019531 371.316406 187.078125 371.328125 L 187.15625 371.328125 C 289.445312 371.328125 372.714844 288.066406 372.75 185.734375 C 372.769531 136.140625 353.484375 89.519531 318.4375 54.4375 Z M 187.15625 339.984375 L 187.09375 339.984375 C 159.417969 339.976562 132.269531 332.535156 108.578125 318.484375 L 102.945312 315.136719 L 44.558594 330.453125 L 60.140625 273.523438 L 56.472656 267.6875 C 41.035156 243.125 32.875 214.738281 32.890625 185.59375 C 32.925781 100.542969 102.125 31.34375 187.222656 31.34375 C 228.421875 31.363281 267.152344 47.425781 296.277344 76.585938 C 325.40625 105.742188 341.433594 144.507812 341.417969 185.71875 C 341.378906 270.777344 272.179688 339.976562 187.15625 339.976562 Z M 271.769531 224.457031 C 267.132812 222.132812 244.335938 210.917969 240.082031 209.371094 C 235.828125 207.824219 232.738281 207.050781 229.652344 211.695312 C 226.5625 216.339844 217.671875 226.789062 214.96875 229.875 C 212.261719 232.972656 209.558594 233.355469 204.921875 231.03125 C 200.285156 228.710938 185.34375 223.816406 167.625 208.019531 C 153.839844 195.71875 144.53125 180.539062 141.828125 175.894531 C 139.121094 171.246094 141.542969 168.738281 143.855469 166.433594 C 145.9375 164.351562 148.492188 161.011719 150.8125 158.308594 C 153.136719 155.601562 153.902344 153.664062 155.449219 150.574219 C 157 147.476562 156.226562 144.773438 155.066406 142.449219 C 153.910156 140.128906 144.636719 117.300781 140.765625 108.019531 C 137.003906 98.976562 133.175781 100.207031 130.335938 100.054688 C 127.632812 99.921875 124.542969 99.894531 121.445312 99.894531 C 118.351562 99.894531 113.332031 101.050781 109.078125 105.695312 C 104.824219 110.339844 92.84375 121.5625 92.84375 144.378906 C 92.84375 167.199219 109.460938 189.261719 111.78125 192.355469 C 114.105469 195.453125 144.484375 242.289062 191.003906 262.382812 C 202.066406 267.164062 210.707031 270.019531 217.441406 272.15625 C 228.546875 275.6875 238.65625 275.191406 246.648438 273.996094 C 255.558594 272.664062 274.085938 262.777344 277.945312 251.945312 C 281.808594 241.113281 281.808594 231.824219 280.652344 229.894531 C 279.496094 227.960938 276.398438 226.796875 271.761719 224.472656 Z M 271.769531 224.457031 "/></g></g></svg>