<svg xmlns="http://www.w3.org/2000/svg" xmlns:xlink="http://www.w3.org/1999/xlink" width="500" zoomAndPan="magnify" viewBox="0 0 375 374.999991" height="500" preserveAspectRatio="xMidYMid meet" version="1.2"><defs><clipPath id="ef5ca9e4ff"><path d="M 0 0 L 372.75 0 L 372.75 375 L 0 375 Z M 0 0 "/></clipPath></defs><g id="9fac68957a"><g clip-rule="nonzero" clip-path="url(#ef5ca9e4ff)"><path style=" stroke:none;fill-rule:evenodd;fill:#ffffff;fill-opacity:1;" d="M 318.4375 54.453125 C 283.402344 19.355469 236.804688 0.0195312 187.15625 0 C 84.851562 0 1.59375 83.292969 1.558594 185.671875 C 1.539062 218.398438 10.089844 250.34375 26.332031 278.496094 L 0 374.726562 L 98.390625 348.90625 C 125.496094 363.703125 156.019531 371.492188 187.078125 371.503906 L 187.15625 371.503906 C 289.445312 371.503906 372.714844 288.203125 372.75 185.824219 C 372.769531 136.207031 353.484375 89.558594 318.4375 54.464844 Z M 187.15625 340.144531 L 187.09375 340.144531 C 159.417969 340.136719 132.269531 332.691406 108.578125 318.632812 L 102.945312 315.289062 L 44.558594 330.609375 L 60.140625 273.652344 L 56.472656 267.8125 C 41.035156 243.242188 32.875 214.839844 32.890625 185.679688 C 32.925781 100.589844 102.125 31.359375 187.222656 31.359375 C 228.421875 31.375 267.152344 47.445312 296.277344 76.625 C 325.40625 105.789062 341.433594 144.574219 341.417969 185.804688 C 341.378906 270.902344 272.179688 340.136719 187.15625 340.136719 Z M 271.769531 224.5625 C 267.132812 222.238281 244.335938 211.019531 240.082031 209.46875 C 235.828125 207.921875 232.738281 207.148438 229.652344 211.792969 C 226.5625 216.441406 217.671875 226.894531 214.96875 229.984375 C 212.261719 233.082031 209.558594 233.464844 204.921875 231.140625 C 200.285156 228.816406 185.34375 223.921875 167.625 208.117188 C 153.839844 195.8125 144.53125 180.625 141.828125 175.976562 C 139.121094 171.328125 141.542969 168.816406 143.855469 166.511719 C 145.9375 164.429688 148.492188 161.089844 150.8125 158.382812 C 153.136719 155.675781 153.902344 153.734375 155.449219 150.644531 C 157 147.546875 156.226562 144.839844 155.066406 142.515625 C 153.910156 140.191406 144.636719 117.355469 140.765625 108.070312 C 137.003906 99.023438 133.175781 100.253906 130.335938 100.101562 C 127.632812 99.96875 124.542969 99.941406 121.445312 99.941406 C 118.351562 99.941406 113.332031 101.097656 109.078125 105.746094 C 104.824219 110.394531 92.84375 121.621094 92.84375 144.449219 C 92.84375 167.277344 109.460938 189.347656 111.78125 192.449219 C 114.105469 195.546875 144.484375 242.402344 191.003906 262.507812 C 202.066406 267.289062 210.707031 270.148438 217.441406 272.285156 C 228.546875 275.816406 238.65625 275.320312 246.648438 274.125 C 255.558594 272.792969 274.085938 262.898438 277.945312 252.0625 C 281.808594 241.226562 281.808594 231.933594 280.652344 230 C 279.496094 228.070312 276.398438 226.902344 271.761719 224.578125 Z M 271.769531 224.5625 "/></g></g></svg>