<svg xmlns="http://www.w3.org/2000/svg" xmlns:xlink="http://www.w3.org/1999/xlink" width="500" zoomAndPan="magnify" viewBox="0 0 375 374.999991" height="500" preserveAspectRatio="xMidYMid meet" version="1.2"><defs><clipPath id="acb3b8210b"><path d="M 60.652344 65 L 314.152344 65 L 314.152344 369.472656 L 60.652344 369.472656 Z M 60.652344 65 "/></clipPath><clipPath id="b93280ef0f"><rect x="0" width="142" y="0" height="146"/></clipPath><clipPath id="4a031b97b8"><rect x="0" width="253" y="0" height="65"/></clipPath></defs><g id="f8eea18ab8"><g clip-rule="nonzero" clip-path="url(#acb3b8210b)"><path style=" stroke:none;fill-rule:nonzero;fill:#ffffff;fill-opacity:1;" d="M 187.53125 369.589844 L 186.714844 369.234375 C 185.625 368.777344 78.023438 321.675781 60.671875 209.667969 L 60.652344 65.09375 L 314.417969 65.09375 L 314.417969 209.347656 C 297.042969 321.675781 189.441406 368.777344 188.359375 369.234375 Z M 64.847656 69.292969 L 64.847656 209.347656 C 81.003906 313.546875 177.5625 360.429688 187.53125 365.011719 C 197.507812 360.429688 294.054688 313.53125 310.246094 209.03125 L 310.222656 69.292969 Z M 64.847656 69.292969 "/></g><g transform="matrix(1,0,0,1,117,116)"><g clip-path="url(#b93280ef0f)"><g style="fill:#ffffff;fill-opacity:1;"><g transform="translate(1.03436, 117.484158)"><path style="stroke:none" d="M 70.859375 -76.59375 L 70.859375 -74.4375 C 68.410156 -74.363281 66.550781 -74 65.28125 -73.34375 C 64.019531 -72.695312 63.171875 -71.648438 62.734375 -70.203125 C 62.304688 -68.765625 62.09375 -66.710938 62.09375 -64.046875 L 62.09375 -31.484375 C 62.09375 -26.429688 61.769531 -22.03125 61.125 -18.28125 C 60.476562 -14.53125 59.320312 -11.285156 57.65625 -8.546875 C 55.851562 -5.515625 53.222656 -3.078125 49.765625 -1.234375 C 46.304688 0.597656 42.335938 1.515625 37.859375 1.515625 C 34.398438 1.515625 31.101562 1.097656 27.96875 0.265625 C 24.832031 -0.554688 22.070312 -2.085938 19.6875 -4.328125 C 17.59375 -6.347656 15.953125 -8.472656 14.765625 -10.703125 C 13.578125 -12.941406 12.765625 -15.679688 12.328125 -18.921875 C 11.898438 -22.171875 11.6875 -26.25 11.6875 -31.15625 L 11.6875 -65.125 C 11.6875 -67.789062 11.46875 -69.753906 11.03125 -71.015625 C 10.601562 -72.285156 9.753906 -73.15625 8.484375 -73.625 C 7.222656 -74.09375 5.367188 -74.363281 2.921875 -74.4375 L 2.921875 -76.59375 C 4.429688 -76.519531 6.410156 -76.445312 8.859375 -76.375 C 11.316406 -76.300781 13.953125 -76.265625 16.765625 -76.265625 C 19.296875 -76.265625 21.800781 -76.300781 24.28125 -76.375 C 26.769531 -76.445312 28.847656 -76.519531 30.515625 -76.59375 L 30.515625 -74.4375 C 28.054688 -74.363281 26.195312 -74.09375 24.9375 -73.625 C 23.675781 -73.15625 22.828125 -72.285156 22.390625 -71.015625 C 21.960938 -69.753906 21.75 -67.789062 21.75 -65.125 L 21.75 -29.3125 C 21.75 -25.632812 21.925781 -22.15625 22.28125 -18.875 C 22.644531 -15.59375 23.382812 -12.707031 24.5 -10.21875 C 25.625 -7.726562 27.335938 -5.78125 29.640625 -4.375 C 31.953125 -2.96875 35.019531 -2.265625 38.84375 -2.265625 C 44.320312 -2.265625 48.554688 -3.472656 51.546875 -5.890625 C 54.546875 -8.304688 56.640625 -11.640625 57.828125 -15.890625 C 59.015625 -20.148438 59.609375 -24.953125 59.609375 -30.296875 L 59.609375 -64.046875 C 59.609375 -66.710938 59.300781 -68.765625 58.6875 -70.203125 C 58.070312 -71.648438 57.039062 -72.695312 55.59375 -73.34375 C 54.15625 -74 52.210938 -74.363281 49.765625 -74.4375 L 49.765625 -76.59375 C 51.066406 -76.519531 52.78125 -76.445312 54.90625 -76.375 C 57.03125 -76.300781 58.992188 -76.265625 60.796875 -76.265625 C 62.671875 -76.265625 64.523438 -76.300781 66.359375 -76.375 C 68.203125 -76.445312 69.703125 -76.519531 70.859375 -76.59375 Z M 70.859375 -76.59375 "/></g></g><g style="fill:#ffffff;fill-opacity:1;"><g transform="translate(71.788642, 117.484158)"><path style="stroke:none" d="M 34.9375 -77.140625 L 61.34375 -9.09375 C 62.425781 -6.351562 63.648438 -4.53125 65.015625 -3.625 C 66.390625 -2.71875 67.65625 -2.226562 68.8125 -2.15625 L 68.8125 0 C 67.363281 -0.144531 65.59375 -0.234375 63.5 -0.265625 C 61.414062 -0.304688 59.328125 -0.328125 57.234375 -0.328125 C 54.421875 -0.328125 51.785156 -0.304688 49.328125 -0.265625 C 46.878906 -0.234375 44.898438 -0.144531 43.390625 0 L 43.390625 -2.15625 C 47.066406 -2.300781 49.410156 -2.929688 50.421875 -4.046875 C 51.429688 -5.171875 51.210938 -7.570312 49.765625 -11.25 L 29.640625 -65.015625 L 31.375 -66.421875 L 12.546875 -17.53125 C 11.390625 -14.644531 10.703125 -12.207031 10.484375 -10.21875 C 10.273438 -8.238281 10.476562 -6.671875 11.09375 -5.515625 C 11.707031 -4.359375 12.75 -3.523438 14.21875 -3.015625 C 15.695312 -2.515625 17.554688 -2.226562 19.796875 -2.15625 L 19.796875 0 C 17.773438 -0.144531 15.664062 -0.234375 13.46875 -0.265625 C 11.269531 -0.304688 9.234375 -0.328125 7.359375 -0.328125 C 5.554688 -0.328125 4.019531 -0.304688 2.75 -0.265625 C 1.488281 -0.234375 0.320312 -0.144531 -0.75 0 L -0.75 -2.15625 C 0.6875 -2.519531 2.160156 -3.367188 3.671875 -4.703125 C 5.191406 -6.035156 6.566406 -8.328125 7.796875 -11.578125 L 33.21875 -77.140625 C 33.5 -77.140625 33.785156 -77.140625 34.078125 -77.140625 C 34.367188 -77.140625 34.65625 -77.140625 34.9375 -77.140625 Z M 48.140625 -31.15625 L 48.140625 -29 L 15.90625 -29 L 16.984375 -31.15625 Z M 48.140625 -31.15625 "/></g></g></g></g><g transform="matrix(1,0,0,1,61,2)"><g clip-path="url(#4a031b97b8)"><g style="fill:#ffffff;fill-opacity:1;"><g transform="translate(11.295903, 55.382678)"><path style="stroke:none" d="M 3.453125 -26.4375 C 7.390625 -27.601562 10.601562 -27.488281 13.09375 -26.09375 C 15.59375 -24.695312 17.390625 -22.160156 18.484375 -18.484375 C 19.191406 -16.085938 19.347656 -13.851562 18.953125 -11.78125 C 18.554688 -9.71875 17.613281 -7.925781 16.125 -6.40625 C 14.632812 -4.882812 12.625 -3.75 10.09375 -3 C 9.757812 -2.894531 9.316406 -2.769531 8.765625 -2.625 C 8.210938 -2.488281 7.640625 -2.34375 7.046875 -2.1875 C 6.460938 -2.03125 5.929688 -1.878906 5.453125 -1.734375 C 4.671875 -1.503906 3.910156 -1.269531 3.171875 -1.03125 C 2.429688 -0.800781 1.832031 -0.59375 1.375 -0.40625 L 1.171875 -1.0625 C 1.910156 -1.332031 2.453125 -1.585938 2.796875 -1.828125 C 3.148438 -2.078125 3.332031 -2.421875 3.34375 -2.859375 C 3.363281 -3.296875 3.257812 -3.90625 3.03125 -4.6875 L -1.828125 -21.0625 C -2.078125 -21.875 -2.320312 -22.453125 -2.5625 -22.796875 C -2.8125 -23.140625 -3.148438 -23.328125 -3.578125 -23.359375 C -4.015625 -23.390625 -4.609375 -23.300781 -5.359375 -23.09375 L -5.5625 -23.75 C -5.082031 -23.882812 -4.460938 -24.039062 -3.703125 -24.21875 C -2.953125 -24.40625 -2.21875 -24.617188 -1.5 -24.859375 C -0.738281 -25.117188 0.117188 -25.398438 1.078125 -25.703125 C 2.046875 -26.003906 2.835938 -26.25 3.453125 -26.4375 Z M 2.828125 -25.59375 C 1.804688 -25.289062 1.195312 -24.910156 1 -24.453125 C 0.800781 -23.992188 0.867188 -23.191406 1.203125 -22.046875 L 6.109375 -5.5625 C 6.441406 -4.414062 6.820312 -3.695312 7.25 -3.40625 C 7.6875 -3.125 8.410156 -3.132812 9.421875 -3.4375 C 11.828125 -4.15625 13.554688 -5.144531 14.609375 -6.40625 C 15.671875 -7.664062 16.21875 -9.207031 16.25 -11.03125 C 16.28125 -12.851562 15.941406 -14.960938 15.234375 -17.359375 C 14.492188 -19.828125 13.59375 -21.785156 12.53125 -23.234375 C 11.46875 -24.679688 10.15625 -25.601562 8.59375 -26 C 7.03125 -26.40625 5.109375 -26.269531 2.828125 -25.59375 Z M 2.828125 -25.59375 "/></g></g><g style="fill:#ffffff;fill-opacity:1;"><g transform="translate(34.352521, 48.53164)"><path style="stroke:none" d="M 16.546875 -28.765625 L 16.703125 -28.09375 C 15.941406 -27.894531 15.390625 -27.648438 15.046875 -27.359375 C 14.703125 -27.066406 14.515625 -26.679688 14.484375 -26.203125 C 14.453125 -25.722656 14.53125 -25.070312 14.71875 -24.25 L 17.015625 -14.15625 C 17.378906 -12.59375 17.59375 -11.207031 17.65625 -10 C 17.71875 -8.789062 17.59375 -7.703125 17.28125 -6.734375 C 16.9375 -5.660156 16.289062 -4.71875 15.34375 -3.90625 C 14.394531 -3.09375 13.234375 -2.53125 11.859375 -2.21875 C 10.773438 -1.96875 9.71875 -1.859375 8.6875 -1.890625 C 7.65625 -1.921875 6.691406 -2.203125 5.796875 -2.734375 C 5.015625 -3.210938 4.351562 -3.753906 3.8125 -4.359375 C 3.28125 -4.972656 2.832031 -5.765625 2.46875 -6.734375 C 2.113281 -7.710938 1.765625 -8.960938 1.421875 -10.484375 L -0.984375 -21.03125 C -1.171875 -21.851562 -1.375 -22.441406 -1.59375 -22.796875 C -1.820312 -23.160156 -2.148438 -23.367188 -2.578125 -23.421875 C -3.003906 -23.484375 -3.597656 -23.4375 -4.359375 -23.28125 L -4.515625 -23.953125 C -4.035156 -24.046875 -3.410156 -24.164062 -2.640625 -24.3125 C -1.878906 -24.457031 -1.066406 -24.628906 -0.203125 -24.828125 C 0.585938 -25.003906 1.363281 -25.191406 2.125 -25.390625 C 2.894531 -25.597656 3.53125 -25.769531 4.03125 -25.90625 L 4.1875 -25.234375 C 3.425781 -25.035156 2.867188 -24.816406 2.515625 -24.578125 C 2.160156 -24.347656 1.960938 -24.023438 1.921875 -23.609375 C 1.878906 -23.191406 1.953125 -22.570312 2.140625 -21.75 L 4.671875 -10.640625 C 4.929688 -9.492188 5.234375 -8.421875 5.578125 -7.421875 C 5.921875 -6.429688 6.351562 -5.59375 6.875 -4.90625 C 7.40625 -4.21875 8.078125 -3.734375 8.890625 -3.453125 C 9.703125 -3.179688 10.703125 -3.179688 11.890625 -3.453125 C 13.585938 -3.835938 14.8125 -4.507812 15.5625 -5.46875 C 16.320312 -6.4375 16.734375 -7.625 16.796875 -9.03125 C 16.867188 -10.4375 16.71875 -11.96875 16.34375 -13.625 L 13.953125 -24.078125 C 13.765625 -24.898438 13.523438 -25.515625 13.234375 -25.921875 C 12.941406 -26.328125 12.546875 -26.578125 12.046875 -26.671875 C 11.554688 -26.773438 10.929688 -26.75 10.171875 -26.59375 L 10.015625 -27.265625 C 10.429688 -27.335938 10.96875 -27.4375 11.625 -27.5625 C 12.28125 -27.6875 12.894531 -27.8125 13.46875 -27.9375 C 14.050781 -28.070312 14.625 -28.21875 15.1875 -28.375 C 15.75 -28.53125 16.203125 -28.660156 16.546875 -28.765625 Z M 16.546875 -28.765625 "/></g></g><g style="fill:#ffffff;fill-opacity:1;"><g transform="translate(56.441536, 43.46285)"><path style="stroke:none" d="M 8.59375 -26.5625 C 10.082031 -26.8125 11.34375 -26.789062 12.375 -26.5 C 13.414062 -26.21875 14.359375 -25.847656 15.203125 -25.390625 C 15.703125 -25.128906 16.050781 -25.144531 16.25 -25.4375 C 16.445312 -25.726562 16.515625 -26.375 16.453125 -27.375 L 17.234375 -27.5 C 17.316406 -26.65625 17.445312 -25.628906 17.625 -24.421875 C 17.800781 -23.210938 18.050781 -21.625 18.375 -19.65625 L 17.59375 -19.53125 C 17.269531 -20.476562 16.992188 -21.234375 16.765625 -21.796875 C 16.535156 -22.359375 16.289062 -22.820312 16.03125 -23.1875 C 15.78125 -23.5625 15.457031 -23.921875 15.0625 -24.265625 C 14.21875 -25.085938 13.226562 -25.617188 12.09375 -25.859375 C 10.96875 -26.109375 9.816406 -26.140625 8.640625 -25.953125 C 7.535156 -25.765625 6.578125 -25.316406 5.765625 -24.609375 C 4.960938 -23.910156 4.320312 -22.988281 3.84375 -21.84375 C 3.363281 -20.707031 3.070312 -19.375 2.96875 -17.84375 C 2.863281 -16.3125 2.957031 -14.628906 3.25 -12.796875 C 3.5625 -10.890625 4.03125 -9.238281 4.65625 -7.84375 C 5.28125 -6.445312 6.015625 -5.304688 6.859375 -4.421875 C 7.710938 -3.546875 8.648438 -2.925781 9.671875 -2.5625 C 10.691406 -2.207031 11.75 -2.117188 12.84375 -2.296875 C 13.863281 -2.460938 14.890625 -2.835938 15.921875 -3.421875 C 16.960938 -4.015625 17.726562 -4.820312 18.21875 -5.84375 C 18.625 -6.570312 18.859375 -7.335938 18.921875 -8.140625 C 18.984375 -8.941406 18.976562 -10.039062 18.90625 -11.4375 L 19.6875 -11.5625 C 20.019531 -9.507812 20.296875 -7.859375 20.515625 -6.609375 C 20.742188 -5.359375 20.957031 -4.304688 21.15625 -3.453125 L 20.375 -3.328125 C 20.125 -4.285156 19.867188 -4.867188 19.609375 -5.078125 C 19.359375 -5.296875 19.007812 -5.207031 18.5625 -4.8125 C 17.820312 -4.082031 17.019531 -3.414062 16.15625 -2.8125 C 15.289062 -2.21875 14.117188 -1.800781 12.640625 -1.5625 C 10.492188 -1.21875 8.53125 -1.398438 6.75 -2.109375 C 4.96875 -2.828125 3.476562 -4.023438 2.28125 -5.703125 C 1.09375 -7.390625 0.289062 -9.523438 -0.125 -12.109375 C -0.539062 -14.648438 -0.441406 -16.945312 0.171875 -19 C 0.785156 -21.050781 1.816406 -22.738281 3.265625 -24.0625 C 4.710938 -25.382812 6.488281 -26.21875 8.59375 -26.5625 Z M 8.59375 -26.5625 "/></g></g><g style="fill:#ffffff;fill-opacity:1;"><g transform="translate(79.280618, 39.890911)"><path style="stroke:none" d=""/></g></g><g style="fill:#ffffff;fill-opacity:1;"><g transform="translate(87.440132, 38.891614)"><path style="stroke:none" d="M 7.9375 -25.1875 L 8 -24.515625 C 7.226562 -24.421875 6.648438 -24.28125 6.265625 -24.09375 C 5.878906 -23.90625 5.632812 -23.601562 5.53125 -23.1875 C 5.4375 -22.78125 5.425781 -22.15625 5.5 -21.3125 L 7.078125 -4.3125 C 7.148438 -3.488281 7.269531 -2.878906 7.4375 -2.484375 C 7.613281 -2.085938 7.910156 -1.835938 8.328125 -1.734375 C 8.742188 -1.628906 9.335938 -1.59375 10.109375 -1.625 L 10.171875 -0.9375 C 9.640625 -0.925781 8.976562 -0.890625 8.1875 -0.828125 C 7.394531 -0.773438 6.597656 -0.710938 5.796875 -0.640625 C 4.910156 -0.554688 4.082031 -0.472656 3.3125 -0.390625 C 2.539062 -0.304688 1.914062 -0.21875 1.4375 -0.125 L 1.375 -0.8125 C 2.144531 -0.925781 2.722656 -1.070312 3.109375 -1.25 C 3.492188 -1.425781 3.738281 -1.722656 3.84375 -2.140625 C 3.945312 -2.566406 3.960938 -3.191406 3.890625 -4.015625 L 2.3125 -21.015625 C 2.238281 -21.859375 2.113281 -22.472656 1.9375 -22.859375 C 1.757812 -23.242188 1.460938 -23.492188 1.046875 -23.609375 C 0.628906 -23.722656 0.0351562 -23.753906 -0.734375 -23.703125 L -0.796875 -24.375 C -0.316406 -24.40625 0.3125 -24.441406 1.09375 -24.484375 C 1.875 -24.523438 2.707031 -24.585938 3.59375 -24.671875 C 4.394531 -24.742188 5.1875 -24.828125 5.96875 -24.921875 C 6.75 -25.023438 7.40625 -25.113281 7.9375 -25.1875 Z M 7.9375 -25.1875 "/></g></g><g style="fill:#ffffff;fill-opacity:1;"><g transform="translate(98.431647, 37.713512)"><path style="stroke:none" d="M 21.96875 -25.34375 L 21.984375 -24.671875 C 21.210938 -24.617188 20.628906 -24.476562 20.234375 -24.25 C 19.835938 -24.019531 19.582031 -23.671875 19.46875 -23.203125 C 19.351562 -22.742188 19.316406 -22.09375 19.359375 -21.25 L 20.25 -0.71875 C 20.113281 -0.707031 19.984375 -0.695312 19.859375 -0.6875 C 19.734375 -0.6875 19.597656 -0.6875 19.453125 -0.6875 L 4.046875 -22.359375 L 4.84375 -4.203125 C 4.875 -3.378906 4.972656 -2.734375 5.140625 -2.265625 C 5.316406 -1.804688 5.632812 -1.488281 6.09375 -1.3125 C 6.550781 -1.132812 7.222656 -1.046875 8.109375 -1.046875 L 8.140625 -0.359375 C 7.734375 -0.378906 7.195312 -0.382812 6.53125 -0.375 C 5.875 -0.363281 5.242188 -0.34375 4.640625 -0.3125 C 4.066406 -0.289062 3.488281 -0.257812 2.90625 -0.21875 C 2.320312 -0.175781 1.832031 -0.125 1.4375 -0.0625 L 1.40625 -0.75 C 2.1875 -0.820312 2.769531 -0.96875 3.15625 -1.1875 C 3.550781 -1.40625 3.804688 -1.75 3.921875 -2.21875 C 4.046875 -2.695312 4.09375 -3.347656 4.0625 -4.171875 L 3.328125 -20.890625 C 3.285156 -21.734375 3.1875 -22.351562 3.03125 -22.75 C 2.875 -23.144531 2.59375 -23.40625 2.1875 -23.53125 C 1.78125 -23.664062 1.179688 -23.726562 0.390625 -23.71875 L 0.375 -24.390625 C 0.769531 -24.390625 1.257812 -24.390625 1.84375 -24.390625 C 2.425781 -24.390625 3.003906 -24.398438 3.578125 -24.421875 C 4.085938 -24.441406 4.570312 -24.472656 5.03125 -24.515625 C 5.488281 -24.566406 5.898438 -24.613281 6.265625 -24.65625 L 19.203125 -6.5 L 18.5625 -21.21875 C 18.519531 -22.0625 18.414062 -22.707031 18.25 -23.15625 C 18.082031 -23.613281 17.769531 -23.9375 17.3125 -24.125 C 16.863281 -24.3125 16.1875 -24.394531 15.28125 -24.375 L 15.265625 -25.046875 C 15.679688 -25.046875 16.226562 -25.046875 16.90625 -25.046875 C 17.582031 -25.046875 18.207031 -25.0625 18.78125 -25.09375 C 19.375 -25.113281 19.960938 -25.148438 20.546875 -25.203125 C 21.128906 -25.253906 21.601562 -25.300781 21.96875 -25.34375 Z M 21.96875 -25.34375 "/></g></g><g style="fill:#ffffff;fill-opacity:1;"><g transform="translate(122.14049, 36.830273)"><path style="stroke:none" d=""/></g></g><g style="fill:#ffffff;fill-opacity:1;"><g transform="translate(130.192885, 36.68612)"><path style="stroke:none" d="M 12.078125 -24.078125 L 19.609375 -2.109375 C 19.921875 -1.222656 20.285156 -0.625 20.703125 -0.3125 C 21.128906 -0.0078125 21.523438 0.15625 21.890625 0.1875 L 21.859375 0.875 C 21.398438 0.8125 20.835938 0.757812 20.171875 0.71875 C 19.515625 0.675781 18.851562 0.644531 18.1875 0.625 C 17.289062 0.582031 16.453125 0.550781 15.671875 0.53125 C 14.890625 0.519531 14.257812 0.523438 13.78125 0.546875 L 13.8125 -0.140625 C 14.976562 -0.128906 15.726562 -0.296875 16.0625 -0.640625 C 16.40625 -0.992188 16.367188 -1.757812 15.953125 -2.9375 L 10.25 -20.28125 L 10.8125 -20.703125 L 4.203125 -5.421875 C 3.804688 -4.515625 3.5625 -3.75 3.46875 -3.125 C 3.375 -2.5 3.414062 -1.992188 3.59375 -1.609375 C 3.769531 -1.234375 4.09375 -0.957031 4.5625 -0.78125 C 5.03125 -0.601562 5.617188 -0.488281 6.328125 -0.4375 L 6.296875 0.25 C 5.648438 0.1875 4.976562 0.128906 4.28125 0.078125 C 3.582031 0.0351562 2.9375 0.00390625 2.34375 -0.015625 C 1.769531 -0.0351562 1.28125 -0.046875 0.875 -0.046875 C 0.476562 -0.046875 0.109375 -0.0351562 -0.234375 -0.015625 L -0.203125 -0.703125 C 0.253906 -0.796875 0.726562 -1.046875 1.21875 -1.453125 C 1.71875 -1.859375 2.1875 -2.570312 2.625 -3.59375 L 11.53125 -24.09375 C 11.625 -24.09375 11.710938 -24.085938 11.796875 -24.078125 C 11.890625 -24.078125 11.984375 -24.078125 12.078125 -24.078125 Z M 15.6875 -9.28125 L 15.671875 -8.609375 L 5.4375 -9.015625 L 5.796875 -9.671875 Z M 15.6875 -9.28125 "/></g></g><g style="fill:#ffffff;fill-opacity:1;"><g transform="translate(151.136936, 37.524473)"><path style="stroke:none" d="M 12.5 -23.265625 L 12.4375 -22.578125 C 11.65625 -22.640625 11.054688 -22.613281 10.640625 -22.5 C 10.234375 -22.382812 9.941406 -22.132812 9.765625 -21.75 C 9.597656 -21.363281 9.472656 -20.75 9.390625 -19.90625 L 7.75 -2.90625 C 7.675781 -2.082031 7.6875 -1.460938 7.78125 -1.046875 C 7.875 -0.628906 8.113281 -0.335938 8.5 -0.171875 C 8.882812 -0.015625 9.46875 0.101562 10.25 0.1875 L 12.75 0.421875 C 13.820312 0.523438 14.703125 0.492188 15.390625 0.328125 C 16.085938 0.160156 16.660156 -0.140625 17.109375 -0.578125 C 17.554688 -1.023438 17.921875 -1.648438 18.203125 -2.453125 C 18.492188 -3.265625 18.753906 -4.257812 18.984375 -5.4375 L 19.765625 -5.359375 C 19.628906 -4.648438 19.503906 -3.71875 19.390625 -2.5625 C 19.347656 -2.125 19.304688 -1.5 19.265625 -0.6875 C 19.222656 0.113281 19.203125 0.957031 19.203125 1.84375 C 18.046875 1.6875 16.738281 1.53125 15.28125 1.375 C 13.820312 1.21875 12.523438 1.085938 11.390625 0.984375 C 10.890625 0.929688 10.242188 0.867188 9.453125 0.796875 C 8.671875 0.722656 7.816406 0.648438 6.890625 0.578125 C 5.972656 0.503906 5.046875 0.425781 4.109375 0.34375 C 3.171875 0.269531 2.28125 0.203125 1.4375 0.140625 L 1.5 -0.546875 C 2.28125 -0.515625 2.875 -0.550781 3.28125 -0.65625 C 3.695312 -0.757812 3.992188 -1.003906 4.171875 -1.390625 C 4.359375 -1.785156 4.488281 -2.394531 4.5625 -3.21875 L 6.203125 -20.21875 C 6.285156 -21.0625 6.273438 -21.6875 6.171875 -22.09375 C 6.066406 -22.507812 5.820312 -22.8125 5.4375 -23 C 5.050781 -23.1875 4.472656 -23.328125 3.703125 -23.421875 L 3.765625 -24.109375 C 4.242188 -24.046875 4.867188 -23.960938 5.640625 -23.859375 C 6.410156 -23.753906 7.238281 -23.660156 8.125 -23.578125 C 8.925781 -23.503906 9.722656 -23.441406 10.515625 -23.390625 C 11.304688 -23.335938 11.96875 -23.296875 12.5 -23.265625 Z M 12.5 -23.265625 "/></g></g><g style="fill:#ffffff;fill-opacity:1;"><g transform="translate(170.572841, 39.356515)"><path style="stroke:none" d="M 23.8125 -21.015625 C 23.582031 -20.160156 23.390625 -19.332031 23.234375 -18.53125 C 23.078125 -17.738281 22.960938 -17.125 22.890625 -16.6875 C 22.804688 -16.144531 22.738281 -15.632812 22.6875 -15.15625 C 22.644531 -14.675781 22.609375 -14.253906 22.578125 -13.890625 L 21.796875 -14.015625 C 21.878906 -15.628906 21.851562 -16.914062 21.71875 -17.875 C 21.59375 -18.832031 21.21875 -19.566406 20.59375 -20.078125 C 19.976562 -20.585938 18.957031 -20.953125 17.53125 -21.171875 L 15.6875 -21.453125 L 12.734375 -2.09375 C 12.597656 -1.1875 12.582031 -0.492188 12.6875 -0.015625 C 12.789062 0.460938 13.078125 0.820312 13.546875 1.0625 C 14.023438 1.300781 14.738281 1.515625 15.6875 1.703125 L 15.578125 2.375 C 14.992188 2.238281 14.25 2.09375 13.34375 1.9375 C 12.4375 1.789062 11.519531 1.644531 10.59375 1.5 C 9.570312 1.34375 8.613281 1.203125 7.71875 1.078125 C 6.820312 0.960938 6.097656 0.882812 5.546875 0.84375 L 5.65625 0.171875 C 6.601562 0.273438 7.335938 0.285156 7.859375 0.203125 C 8.390625 0.117188 8.769531 -0.132812 9 -0.5625 C 9.238281 -1 9.425781 -1.671875 9.5625 -2.578125 L 12.515625 -21.9375 L 10.6875 -22.203125 C 9.28125 -22.421875 8.203125 -22.378906 7.453125 -22.078125 C 6.703125 -21.773438 6.117188 -21.1875 5.703125 -20.3125 C 5.285156 -19.4375 4.878906 -18.210938 4.484375 -16.640625 L 3.703125 -16.765625 C 3.796875 -17.117188 3.882812 -17.53125 3.96875 -18 C 4.050781 -18.476562 4.132812 -18.988281 4.21875 -19.53125 C 4.289062 -19.96875 4.367188 -20.585938 4.453125 -21.390625 C 4.546875 -22.203125 4.613281 -23.046875 4.65625 -23.921875 C 5.59375 -23.765625 6.625 -23.585938 7.75 -23.390625 C 8.875 -23.191406 10.003906 -23.003906 11.140625 -22.828125 C 12.273438 -22.648438 13.304688 -22.492188 14.234375 -22.359375 C 15.160156 -22.210938 16.1875 -22.050781 17.3125 -21.875 C 18.4375 -21.707031 19.5625 -21.550781 20.6875 -21.40625 C 21.820312 -21.257812 22.863281 -21.128906 23.8125 -21.015625 Z M 23.8125 -21.015625 "/></g></g><g style="fill:#ffffff;fill-opacity:1;"><g transform="translate(190.949854, 42.405315)"><path style="stroke:none" d="M 27.125 -19.09375 L 26.984375 -18.421875 C 26.222656 -18.578125 25.617188 -18.59375 25.171875 -18.46875 C 24.734375 -18.34375 24.398438 -18.070312 24.171875 -17.65625 C 23.953125 -17.238281 23.753906 -16.617188 23.578125 -15.796875 L 21.40625 -5.671875 C 21.070312 -4.097656 20.675781 -2.75 20.21875 -1.625 C 19.769531 -0.5 19.195312 0.4375 18.5 1.1875 C 17.738281 2.007812 16.757812 2.585938 15.5625 2.921875 C 14.363281 3.265625 13.070312 3.285156 11.6875 2.984375 C 10.601562 2.753906 9.597656 2.40625 8.671875 1.9375 C 7.753906 1.46875 7 0.8125 6.40625 -0.03125 C 5.894531 -0.800781 5.523438 -1.570312 5.296875 -2.34375 C 5.078125 -3.125 5.007812 -4.03125 5.09375 -5.0625 C 5.175781 -6.09375 5.382812 -7.375 5.71875 -8.90625 L 7.96875 -19.484375 C 8.144531 -20.304688 8.203125 -20.925781 8.140625 -21.34375 C 8.085938 -21.769531 7.882812 -22.097656 7.53125 -22.328125 C 7.175781 -22.566406 6.617188 -22.773438 5.859375 -22.953125 L 6 -23.625 C 6.476562 -23.507812 7.09375 -23.359375 7.84375 -23.171875 C 8.59375 -22.984375 9.40625 -22.796875 10.28125 -22.609375 C 11.070312 -22.441406 11.851562 -22.285156 12.625 -22.140625 C 13.40625 -22.003906 14.054688 -21.882812 14.578125 -21.78125 L 14.4375 -21.109375 C 13.675781 -21.265625 13.082031 -21.304688 12.65625 -21.234375 C 12.226562 -21.171875 11.90625 -20.957031 11.6875 -20.59375 C 11.46875 -20.226562 11.269531 -19.632812 11.09375 -18.8125 L 8.71875 -7.671875 C 8.46875 -6.515625 8.289062 -5.414062 8.1875 -4.375 C 8.082031 -3.34375 8.117188 -2.398438 8.296875 -1.546875 C 8.484375 -0.691406 8.890625 0.0234375 9.515625 0.609375 C 10.140625 1.203125 11.046875 1.625 12.234375 1.875 C 13.941406 2.238281 15.34375 2.144531 16.4375 1.59375 C 17.53125 1.039062 18.398438 0.144531 19.046875 -1.09375 C 19.691406 -2.34375 20.191406 -3.796875 20.546875 -5.453125 L 22.796875 -15.953125 C 22.972656 -16.773438 23.015625 -17.429688 22.921875 -17.921875 C 22.828125 -18.410156 22.578125 -18.804688 22.171875 -19.109375 C 21.773438 -19.410156 21.195312 -19.648438 20.4375 -19.828125 L 20.578125 -20.5 C 20.984375 -20.40625 21.507812 -20.273438 22.15625 -20.109375 C 22.8125 -19.941406 23.425781 -19.796875 24 -19.671875 C 24.570312 -19.546875 25.144531 -19.4375 25.71875 -19.34375 C 26.300781 -19.25 26.769531 -19.164062 27.125 -19.09375 Z M 27.125 -19.09375 "/></g></g><g style="fill:#ffffff;fill-opacity:1;"><g transform="translate(213.04429, 46.981464)"><path style="stroke:none" d="M 34.171875 -15.453125 L 33.96875 -14.796875 C 33.226562 -14.992188 32.644531 -15.070312 32.21875 -15.03125 C 31.789062 -15 31.453125 -14.8125 31.203125 -14.46875 C 30.953125 -14.125 30.710938 -13.550781 30.484375 -12.75 L 25.734375 3.65625 C 25.503906 4.445312 25.398438 5.0625 25.421875 5.5 C 25.441406 5.9375 25.625 6.273438 25.96875 6.515625 C 26.3125 6.765625 26.847656 7.019531 27.578125 7.28125 L 27.390625 7.9375 C 26.898438 7.75 26.273438 7.535156 25.515625 7.296875 C 24.765625 7.054688 24.003906 6.828125 23.234375 6.609375 C 22.367188 6.359375 21.554688 6.128906 20.796875 5.921875 C 20.046875 5.722656 19.4375 5.582031 18.96875 5.5 L 19.15625 4.84375 C 19.914062 5.007812 20.507812 5.082031 20.9375 5.0625 C 21.363281 5.039062 21.695312 4.847656 21.9375 4.484375 C 22.1875 4.128906 22.425781 3.554688 22.65625 2.765625 L 27.921875 -15.421875 L 28.03125 -15.265625 L 13.640625 4.140625 L 13.09375 3.984375 L 10.96875 -19.890625 L 5.921875 -2.4375 C 5.691406 -1.644531 5.582031 -1.003906 5.59375 -0.515625 C 5.613281 -0.0234375 5.8125 0.375 6.1875 0.6875 C 6.5625 1.007812 7.171875 1.316406 8.015625 1.609375 L 7.828125 2.265625 C 7.441406 2.109375 6.929688 1.929688 6.296875 1.734375 C 5.671875 1.535156 5.066406 1.351562 4.484375 1.1875 C 3.929688 1.019531 3.375 0.863281 2.8125 0.71875 C 2.25 0.570312 1.769531 0.46875 1.375 0.40625 L 1.5625 -0.25 C 2.320312 -0.0820312 2.921875 -0.0351562 3.359375 -0.109375 C 3.804688 -0.191406 4.160156 -0.4375 4.421875 -0.84375 C 4.691406 -1.257812 4.941406 -1.863281 5.171875 -2.65625 L 9.828125 -18.734375 C 10.054688 -19.535156 10.160156 -20.144531 10.140625 -20.5625 C 10.117188 -20.988281 9.9375 -21.332031 9.59375 -21.59375 C 9.25 -21.851562 8.703125 -22.097656 7.953125 -22.328125 L 8.15625 -22.984375 C 8.53125 -22.867188 8.992188 -22.71875 9.546875 -22.53125 C 10.097656 -22.34375 10.648438 -22.164062 11.203125 -22 C 11.691406 -21.863281 12.195312 -21.734375 12.71875 -21.609375 C 13.238281 -21.484375 13.679688 -21.375 14.046875 -21.28125 L 15.8125 0.65625 L 15.203125 0.734375 L 28.390625 -17.03125 C 28.660156 -16.945312 28.921875 -16.867188 29.171875 -16.796875 C 29.421875 -16.722656 29.679688 -16.648438 29.953125 -16.578125 C 30.722656 -16.359375 31.488281 -16.148438 32.25 -15.953125 C 33.019531 -15.753906 33.660156 -15.585938 34.171875 -15.453125 Z M 34.171875 -15.453125 "/></g></g></g></g></g></svg>