<svg xmlns="http://www.w3.org/2000/svg" xmlns:xlink="http://www.w3.org/1999/xlink" width="500" zoomAndPan="magnify" viewBox="0 0 375 374.999991" height="500" preserveAspectRatio="xMidYMid meet" version="1.2"><g id="10f3f9e26a"><path style=" stroke:none;fill-rule:nonzero;fill:#fdfdfd;fill-opacity:1;" d="M 18.375 24 C 19.332031 24.410156 20.207031 24.820312 21.117188 25.316406 C 21.644531 25.59375 22.171875 25.867188 22.699219 26.140625 L 23.527344 26.570312 C 24.953125 27.292969 26.402344 27.960938 27.855469 28.625 C 28.152344 28.761719 28.449219 28.894531 28.753906 29.035156 L 30.582031 29.875 C 32.199219 30.617188 33.816406 31.359375 35.433594 32.101562 L 36.386719 32.542969 C 39.753906 34.097656 43.101562 35.683594 46.4375 37.300781 C 47.320312 37.726562 48.207031 38.15625 49.09375 38.582031 C 57.820312 42.777344 66.539062 46.976562 74.929688 51.820312 C 83.667969 56.847656 92.847656 61.160156 102.015625 65.339844 C 103.550781 66.042969 105.074219 66.777344 106.582031 67.542969 C 108.390625 68.453125 110.207031 69.300781 112.078125 70.078125 L 112.878906 70.425781 C 114.066406 70.921875 115.0625 71.242188 116.347656 71.394531 C 117.378906 71.316406 117.378906 71.316406 118.160156 70.78125 L 118.851562 70.125 L 119.625 69.394531 C 120.554688 68.4375 121.449219 67.449219 122.3125 66.433594 C 123.066406 65.546875 123.839844 64.683594 124.617188 63.820312 L 125.476562 62.867188 C 126.414062 61.832031 127.355469 60.796875 128.296875 59.765625 C 130.730469 57.089844 133.089844 54.359375 135.4375 51.613281 C 136.667969 50.171875 137.90625 48.742188 139.152344 47.316406 C 139.570312 46.835938 139.984375 46.359375 140.402344 45.882812 C 141.816406 44.257812 143.167969 42.582031 144.457031 40.855469 C 145.261719 39.972656 145.898438 39.476562 147 39 C 148.242188 39.007812 149.195312 39.164062 150.316406 39.710938 C 151.078125 40.160156 151.804688 40.636719 152.53125 41.132812 L 153.359375 41.683594 C 157.933594 44.765625 162.378906 48.015625 166.527344 51.652344 C 167.917969 52.867188 169.34375 54.03125 170.8125 55.148438 L 171.417969 55.609375 C 171.820312 55.914062 172.226562 56.222656 172.632812 56.53125 C 175.636719 58.8125 178.578125 61.15625 181.429688 63.632812 L 182.148438 64.253906 C 183.164062 65.140625 184.164062 66.042969 185.148438 66.960938 C 186.285156 68.027344 187.222656 68.875 188.648438 69.515625 C 189.789062 69.371094 190.148438 69.199219 191.0625 68.554688 C 191.632812 68.085938 192.195312 67.609375 192.75 67.125 C 193.15625 66.78125 193.558594 66.433594 193.964844 66.089844 C 194.871094 65.316406 195.777344 64.539062 196.679688 63.757812 C 198.464844 62.21875 200.292969 60.734375 202.125 59.25 L 204.070312 57.65625 C 205.261719 56.679688 206.460938 55.707031 207.660156 54.738281 C 210.984375 52.046875 214.265625 49.300781 217.5 46.5 C 218.460938 45.671875 219.421875 44.84375 220.382812 44.015625 L 221.050781 43.4375 C 221.96875 42.648438 222.867188 41.921875 223.875 41.25 C 224.609375 41.316406 224.609375 41.316406 225.375 41.625 C 226.046875 42.136719 226.046875 42.136719 226.730469 42.785156 L 227.488281 43.507812 L 228.28125 44.273438 L 229.097656 45.050781 C 230.667969 46.550781 232.210938 48.074219 233.734375 49.621094 C 234.636719 50.507812 235.59375 51.332031 236.554688 52.160156 C 237.507812 52.992188 238.4375 53.847656 239.367188 54.703125 C 242.425781 57.488281 245.664062 60.039062 248.917969 62.585938 C 254.429688 66.90625 254.429688 66.90625 255.789062 68.324219 C 256.492188 69.09375 256.492188 69.09375 257.671875 69.351562 C 260.929688 69.402344 263.945312 67.835938 266.859375 66.515625 C 269.75 65.230469 272.648438 64.050781 275.625 62.976562 C 289.859375 57.769531 303.796875 51.125 317.292969 44.242188 C 319.855469 42.933594 322.4375 41.683594 325.039062 40.449219 C 328.121094 38.984375 331.183594 37.480469 334.234375 35.945312 L 335.386719 35.363281 C 336.941406 34.582031 338.492188 33.796875 340.039062 33.011719 C 350.082031 27.917969 350.082031 27.917969 352.5 27.375 C 353.757812 27.492188 354.53125 27.605469 355.585938 28.300781 C 356.570312 29.707031 356.800781 31.121094 357.117188 32.789062 L 357.347656 33.953125 C 360.601562 50.992188 362.457031 68.191406 363.769531 85.476562 L 364.007812 88.582031 L 364.066406 89.367188 C 364.363281 93.230469 364.6875 97.089844 365.039062 100.945312 C 367.773438 131.183594 369.277344 161.492188 370.574219 191.820312 C 370.738281 195.644531 370.90625 199.46875 371.09375 203.289062 L 371.148438 204.394531 C 371.230469 206.097656 371.316406 207.800781 371.402344 209.5 C 371.492188 211.292969 371.5625 213.082031 371.625 214.875 L 371.664062 215.859375 C 371.699219 216.839844 371.722656 217.820312 371.742188 218.804688 L 371.777344 219.714844 C 371.789062 220.558594 371.789062 220.558594 371.625 222 C 370.800781 223.011719 370.222656 223.359375 369.019531 223.855469 L 367.875 224.25 C 367.082031 224.625 366.296875 225.007812 365.507812 225.394531 C 364.851562 225.695312 364.195312 226 363.535156 226.296875 C 362.296875 226.863281 361.0625 227.433594 359.828125 228.007812 L 359.039062 228.371094 C 356.023438 229.773438 353.03125 231.230469 350.039062 232.6875 L 349.199219 233.097656 C 348.089844 233.636719 346.980469 234.179688 345.871094 234.722656 C 344.167969 235.550781 342.460938 236.378906 340.753906 237.195312 C 335.324219 239.800781 329.929688 242.46875 324.550781 245.175781 C 320.316406 247.304688 316.058594 249.355469 311.75 251.320312 C 307.671875 253.191406 303.667969 255.207031 299.671875 257.238281 L 298.921875 257.621094 C 298.246094 257.964844 297.570312 258.308594 296.894531 258.652344 C 295.875 259.125 295.875 259.125 295.125 259.125 L 294.839844 260 C 294.226562 261.808594 293.570312 263.601562 292.914062 265.398438 L 292.480469 266.59375 L 291.550781 269.128906 C 291.066406 270.457031 290.578125 271.789062 290.09375 273.121094 C 288.703125 276.929688 287.308594 280.738281 285.878906 284.53125 C 283.164062 291.730469 280.65625 298.980469 278.25 306.289062 L 277.945312 307.203125 C 277.507812 308.542969 277.082031 309.882812 276.6875 311.234375 L 276.304688 312.550781 L 275.992188 313.664062 C 275.460938 315.054688 274.648438 315.917969 273.542969 316.894531 L 272.625 317.625 L 271.53125 318.496094 C 270.496094 319.300781 269.457031 320.09375 268.40625 320.878906 C 265.351562 323.1875 262.371094 325.585938 259.460938 328.078125 C 257.769531 329.515625 256.035156 330.890625 254.28125 332.257812 C 252.019531 334.023438 249.800781 335.847656 247.585938 337.671875 C 244.625 340.109375 241.636719 342.492188 238.554688 344.777344 C 236.621094 346.210938 234.722656 347.6875 232.828125 349.171875 C 230.628906 350.894531 228.40625 352.558594 226.121094 354.167969 C 224.609375 355.234375 223.136719 356.335938 221.671875 357.46875 L 221.058594 357.941406 C 220.191406 358.609375 219.335938 359.285156 218.496094 359.984375 C 216.722656 361.4375 216.722656 361.4375 215.609375 361.636719 C 214.875 361.640625 214.875 361.640625 213.75 361.5 C 214.652344 358.332031 215.722656 355.226562 216.820312 352.125 L 217.109375 351.304688 C 218.804688 346.507812 220.585938 341.738281 222.398438 336.984375 L 222.789062 335.964844 C 224.007812 332.769531 225.238281 329.578125 226.515625 326.402344 C 228.398438 321.734375 230.136719 317.039062 231.71875 312.261719 C 231.925781 311.640625 232.132812 311.019531 232.34375 310.402344 C 232.632812 309.535156 232.917969 308.667969 233.199219 307.796875 C 233.328125 307.414062 233.328125 307.414062 233.460938 307.019531 C 233.867188 305.738281 233.992188 304.789062 233.890625 303.441406 C 232.898438 298.972656 228.972656 294.910156 226.277344 291.335938 C 225.832031 290.738281 225.414062 290.121094 225 289.5 C 220.894531 290.234375 217.070312 291.90625 213.226562 293.480469 L 211.941406 293.996094 C 211.105469 294.335938 210.265625 294.679688 209.433594 295.03125 C 207.019531 295.996094 204.96875 296.4375 202.363281 296.398438 C 200.921875 296.179688 199.945312 295.585938 198.800781 294.710938 C 197.65625 293.691406 196.582031 292.613281 195.519531 291.507812 C 194.261719 290.265625 192.898438 289.179688 191.515625 288.082031 C 190.25 287.042969 189.089844 285.914062 187.9375 284.75 L 187.125 284.25 C 185.84375 284.285156 185.050781 284.527344 183.9375 285.160156 C 181.933594 286.675781 179.980469 288.253906 178.078125 289.898438 L 177.398438 290.480469 C 176.433594 291.3125 175.472656 292.152344 174.523438 292.996094 L 173.671875 293.71875 L 172.972656 294.332031 C 171.945312 294.839844 171.070312 294.847656 169.9375 294.832031 C 168.628906 294.703125 167.492188 294.214844 166.304688 293.679688 L 165.523438 293.34375 C 164.972656 293.109375 164.425781 292.875 163.875 292.632812 C 162.457031 292.019531 161.03125 291.414062 159.597656 290.820312 L 158.75 290.464844 C 156.519531 289.539062 154.265625 288.730469 151.945312 288.046875 L 151.058594 287.785156 C 149.679688 287.398438 148.433594 287.15625 147 287.25 L 146.71875 288.167969 C 146.265625 289.457031 145.730469 290.667969 145.15625 291.90625 C 143.648438 295.148438 142.25 298.429688 140.953125 301.757812 L 140.496094 302.882812 C 139.902344 304.441406 139.367188 305.890625 139.460938 307.578125 C 139.9375 310.265625 141.058594 312.835938 142.03125 315.375 L 142.695312 317.132812 C 144.238281 321.222656 145.84375 325.285156 147.460938 329.34375 C 149.210938 333.734375 150.84375 338.160156 152.4375 342.609375 L 152.769531 343.535156 C 153.480469 345.519531 154.179688 347.507812 154.875 349.5 L 155.15625 350.300781 C 155.421875 351.058594 155.683594 351.820312 155.941406 352.578125 L 156.390625 353.878906 C 156.757812 355.148438 157.003906 356.4375 157.125 357.75 L 156.75 358.125 C 155.234375 358.042969 154.257812 357.828125 152.945312 357.050781 C 152.539062 356.75 152.132812 356.445312 151.734375 356.132812 L 150.347656 355.101562 C 149.988281 354.828125 149.988281 354.828125 149.617188 354.550781 C 148.367188 353.621094 147.082031 352.738281 145.804688 351.84375 C 140.671875 348.230469 135.636719 344.5 130.722656 340.597656 C 129.15625 339.359375 127.570312 338.148438 125.984375 336.9375 C 125.453125 336.527344 124.917969 336.121094 124.382812 335.710938 C 120.832031 332.992188 117.273438 330.285156 113.671875 327.632812 C 113.382812 327.417969 113.089844 327.203125 112.789062 326.984375 C 111.40625 325.964844 110.019531 324.957031 108.621094 323.960938 L 107.847656 323.402344 C 107.375 323.066406 106.902344 322.730469 106.425781 322.398438 C 104.542969 321.042969 103.1875 319.570312 102.101562 317.535156 L 101.523438 316.226562 L 101.203125 315.507812 C 100.863281 314.746094 100.527344 313.984375 100.195312 313.21875 L 99.488281 311.625 C 98.917969 310.34375 98.351562 309.0625 97.789062 307.78125 C 97.414062 306.933594 97.039062 306.085938 96.664062 305.242188 C 96.203125 304.210938 95.742188 303.175781 95.285156 302.144531 L 94.5 300.375 L 93.992188 299.230469 C 90.855469 292.167969 87.621094 285.15625 84.316406 278.167969 L 83.429688 276.289062 C 82.433594 274.179688 81.425781 272.078125 80.40625 269.980469 C 79.8125 268.742188 79.226562 267.5 78.644531 266.257812 L 77.367188 263.601562 L 76.785156 262.351562 C 75.925781 260.582031 75.160156 259.078125 73.59375 257.851562 C 73.070312 257.511719 72.539062 257.183594 72 256.875 L 71.117188 256.363281 C 70.132812 255.816406 69.136719 255.300781 68.132812 254.789062 L 66.996094 254.203125 C 59.53125 250.390625 51.941406 246.886719 44.273438 243.503906 C 40.125 241.667969 35.984375 239.8125 31.851562 237.9375 L 30.851562 237.484375 C 25.660156 235.132812 20.472656 232.769531 15.292969 230.394531 C 13.023438 229.351562 10.753906 228.316406 8.472656 227.304688 L 7.414062 226.835938 C 6.800781 226.5625 6.1875 226.292969 5.570312 226.027344 C 3.863281 225.269531 2.089844 224.464844 0.75 223.125 C 0.378906 217.640625 1.0625 212.132812 1.546875 206.675781 C 2.511719 195.839844 3.261719 185.007812 3.75 174.140625 L 3.792969 173.1875 C 3.929688 170.144531 4.0625 167.101562 4.195312 164.058594 C 4.457031 158.027344 4.738281 152 5.027344 145.96875 L 5.347656 139.226562 C 6.011719 125.195312 6.667969 111.164062 7.273438 97.132812 L 7.335938 95.664062 C 7.53125 91.058594 7.730469 86.453125 7.921875 81.84375 C 8.265625 73.542969 8.640625 65.246094 9.113281 56.949219 C 9.15625 56.144531 9.203125 55.335938 9.246094 54.53125 C 9.632812 47.5625 10.390625 40.671875 11.410156 33.769531 C 11.558594 32.738281 11.691406 31.710938 11.808594 30.679688 L 11.902344 29.910156 C 11.980469 29.222656 12.058594 28.535156 12.132812 27.847656 C 12.394531 26.523438 12.816406 25.535156 13.5 24.375 C 15.058594 23.351562 16.625 23.625 18.375 24 "/><path style=" stroke:none;fill-rule:nonzero;fill:#fdfdfd;fill-opacity:1;" d="M 18.375 24 C 19.332031 24.410156 20.207031 24.820312 21.117188 25.316406 C 21.644531 25.59375 22.171875 25.867188 22.699219 26.140625 L 23.527344 26.570312 C 24.953125 27.292969 26.402344 27.960938 27.855469 28.625 C 28.152344 28.761719 28.449219 28.894531 28.753906 29.035156 L 30.582031 29.875 C 32.199219 30.617188 33.816406 31.359375 35.433594 32.101562 L 36.386719 32.542969 C 39.753906 34.097656 43.101562 35.683594 46.4375 37.300781 C 47.320312 37.726562 48.207031 38.15625 49.09375 38.582031 C 57.820312 42.777344 66.539062 46.976562 74.929688 51.820312 C 83.667969 56.847656 92.847656 61.160156 102.015625 65.339844 C 103.550781 66.042969 105.074219 66.777344 106.582031 67.542969 C 108.390625 68.453125 110.207031 69.300781 112.078125 70.078125 L 112.878906 70.425781 C 114.066406 70.921875 115.0625 71.242188 116.347656 71.394531 C 117.378906 71.316406 117.378906 71.316406 118.160156 70.78125 L 118.851562 70.125 L 119.625 69.394531 C 120.554688 68.4375 121.449219 67.449219 122.3125 66.433594 C 123.066406 65.546875 123.839844 64.683594 124.617188 63.820312 L 125.476562 62.867188 C 126.414062 61.832031 127.355469 60.796875 128.296875 59.765625 C 130.730469 57.089844 133.089844 54.359375 135.4375 51.613281 C 136.667969 50.171875 137.90625 48.742188 139.152344 47.316406 C 139.570312 46.835938 139.984375 46.359375 140.402344 45.882812 C 141.816406 44.257812 143.167969 42.582031 144.457031 40.855469 C 145.261719 39.972656 145.898438 39.476562 147 39 C 148.242188 39.007812 149.195312 39.164062 150.316406 39.710938 C 151.078125 40.160156 151.804688 40.636719 152.53125 41.132812 L 153.359375 41.683594 C 157.933594 44.765625 162.378906 48.015625 166.527344 51.652344 C 167.917969 52.867188 169.34375 54.03125 170.8125 55.148438 L 171.417969 55.609375 C 171.820312 55.914062 172.226562 56.222656 172.632812 56.53125 C 175.636719 58.8125 178.578125 61.15625 181.429688 63.632812 L 182.148438 64.253906 C 183.164062 65.140625 184.164062 66.042969 185.148438 66.960938 C 186.285156 68.027344 187.222656 68.875 188.648438 69.515625 C 189.789062 69.371094 190.148438 69.199219 191.0625 68.554688 C 191.632812 68.085938 192.195312 67.609375 192.75 67.125 C 193.15625 66.78125 193.558594 66.433594 193.964844 66.089844 C 194.871094 65.316406 195.777344 64.539062 196.679688 63.757812 C 198.464844 62.21875 200.292969 60.734375 202.125 59.25 L 204.070312 57.65625 C 205.261719 56.679688 206.460938 55.707031 207.660156 54.738281 C 210.984375 52.046875 214.265625 49.300781 217.5 46.5 C 218.460938 45.671875 219.421875 44.84375 220.382812 44.015625 L 221.050781 43.4375 C 221.96875 42.648438 222.867188 41.921875 223.875 41.25 C 224.609375 41.316406 224.609375 41.316406 225.375 41.625 C 226.046875 42.136719 226.046875 42.136719 226.730469 42.785156 L 227.488281 43.507812 L 228.28125 44.273438 L 229.097656 45.050781 C 230.667969 46.550781 232.210938 48.074219 233.734375 49.621094 C 234.636719 50.507812 235.59375 51.332031 236.554688 52.160156 C 237.507812 52.992188 238.4375 53.847656 239.367188 54.703125 C 242.425781 57.488281 245.664062 60.039062 248.917969 62.585938 C 254.429688 66.90625 254.429688 66.90625 255.789062 68.324219 C 256.492188 69.09375 256.492188 69.09375 257.671875 69.351562 C 260.929688 69.402344 263.945312 67.835938 266.859375 66.515625 C 269.75 65.230469 272.648438 64.050781 275.625 62.976562 C 289.859375 57.769531 303.796875 51.125 317.292969 44.242188 C 319.855469 42.933594 322.4375 41.683594 325.039062 40.449219 C 328.121094 38.984375 331.183594 37.480469 334.234375 35.945312 L 335.386719 35.363281 C 336.941406 34.582031 338.492188 33.796875 340.039062 33.011719 C 350.082031 27.917969 350.082031 27.917969 352.5 27.375 C 353.757812 27.492188 354.53125 27.605469 355.585938 28.300781 C 356.570312 29.707031 356.800781 31.121094 357.117188 32.789062 L 357.347656 33.953125 C 360.601562 50.992188 362.457031 68.191406 363.769531 85.476562 L 364.007812 88.582031 L 364.066406 89.367188 C 364.363281 93.230469 364.6875 97.089844 365.039062 100.945312 C 367.773438 131.183594 369.277344 161.492188 370.574219 191.820312 C 370.738281 195.644531 370.90625 199.46875 371.09375 203.289062 L 371.148438 204.394531 C 371.230469 206.097656 371.316406 207.800781 371.402344 209.5 C 371.492188 211.292969 371.5625 213.082031 371.625 214.875 L 371.664062 215.859375 C 371.699219 216.839844 371.722656 217.820312 371.742188 218.804688 L 371.777344 219.714844 C 371.789062 220.558594 371.789062 220.558594 371.625 222 C 370.800781 223.011719 370.222656 223.359375 369.019531 223.855469 L 367.875 224.25 C 367.082031 224.625 366.296875 225.007812 365.507812 225.394531 C 364.851562 225.695312 364.195312 226 363.535156 226.296875 C 362.296875 226.863281 361.0625 227.433594 359.828125 228.007812 L 359.039062 228.371094 C 356.023438 229.773438 353.03125 231.230469 350.039062 232.6875 L 349.199219 233.097656 C 348.089844 233.636719 346.980469 234.179688 345.871094 234.722656 C 344.167969 235.550781 342.460938 236.378906 340.753906 237.195312 C 335.324219 239.800781 329.929688 242.46875 324.550781 245.175781 C 320.316406 247.304688 316.058594 249.355469 311.75 251.320312 C 307.671875 253.191406 303.667969 255.207031 299.671875 257.238281 L 298.921875 257.621094 C 298.246094 257.964844 297.570312 258.308594 296.894531 258.652344 C 295.875 259.125 295.875 259.125 295.125 259.125 L 294.839844 260 C 294.226562 261.808594 293.570312 263.601562 292.914062 265.398438 L 292.480469 266.59375 L 291.550781 269.128906 C 291.066406 270.457031 290.578125 271.789062 290.09375 273.121094 C 288.703125 276.929688 287.308594 280.738281 285.878906 284.53125 C 283.164062 291.730469 280.65625 298.980469 278.25 306.289062 L 277.945312 307.203125 C 277.507812 308.542969 277.082031 309.882812 276.6875 311.234375 L 276.304688 312.550781 L 275.992188 313.664062 C 275.460938 315.054688 274.648438 315.917969 273.542969 316.894531 L 272.625 317.625 L 271.53125 318.496094 C 270.496094 319.300781 269.457031 320.09375 268.40625 320.878906 C 265.351562 323.1875 262.371094 325.585938 259.460938 328.078125 C 257.769531 329.515625 256.035156 330.890625 254.28125 332.257812 C 252.019531 334.023438 249.800781 335.847656 247.585938 337.671875 C 244.625 340.109375 241.636719 342.492188 238.554688 344.777344 C 236.621094 346.210938 234.722656 347.6875 232.828125 349.171875 C 230.628906 350.894531 228.40625 352.558594 226.121094 354.167969 C 224.609375 355.234375 223.136719 356.335938 221.671875 357.46875 L 221.058594 357.941406 C 220.191406 358.609375 219.335938 359.285156 218.496094 359.984375 C 216.722656 361.4375 216.722656 361.4375 215.609375 361.636719 C 214.875 361.640625 214.875 361.640625 213.75 361.5 C 214.652344 358.332031 215.722656 355.226562 216.820312 352.125 L 217.109375 351.304688 C 218.804688 346.507812 220.585938 341.738281 222.398438 336.984375 L 222.789062 335.964844 C 224.007812 332.769531 225.238281 329.578125 226.515625 326.402344 C 228.398438 321.734375 230.136719 317.039062 231.71875 312.261719 C 231.925781 311.640625 232.132812 311.019531 232.34375 310.402344 C 232.632812 309.535156 232.917969 308.667969 233.199219 307.796875 C 233.328125 307.414062 233.328125 307.414062 233.460938 307.019531 C 233.867188 305.738281 233.992188 304.789062 233.890625 303.441406 C 232.898438 298.972656 228.972656 294.910156 226.277344 291.335938 C 225.832031 290.738281 225.414062 290.121094 225 289.5 C 220.894531 290.234375 217.070312 291.90625 213.226562 293.480469 L 211.941406 293.996094 C 211.105469 294.335938 210.265625 294.679688 209.433594 295.03125 C 207.019531 295.996094 204.96875 296.4375 202.363281 296.398438 C 200.921875 296.179688 199.945312 295.585938 198.800781 294.710938 C 197.65625 293.691406 196.582031 292.613281 195.519531 291.507812 C 194.261719 290.265625 192.898438 289.179688 191.515625 288.082031 C 190.25 287.042969 189.089844 285.914062 187.9375 284.75 L 187.125 284.25 C 185.84375 284.285156 185.050781 284.527344 183.9375 285.160156 C 181.933594 286.675781 179.980469 288.253906 178.078125 289.898438 L 177.398438 290.480469 C 176.433594 291.3125 175.472656 292.152344 174.523438 292.996094 L 173.671875 293.71875 L 172.972656 294.332031 C 171.945312 294.839844 171.070312 294.847656 169.9375 294.832031 C 168.628906 294.703125 167.492188 294.214844 166.304688 293.679688 L 165.523438 293.34375 C 164.972656 293.109375 164.425781 292.875 163.875 292.632812 C 162.457031 292.019531 161.03125 291.414062 159.597656 290.820312 L 158.75 290.464844 C 156.519531 289.539062 154.265625 288.730469 151.945312 288.046875 L 151.058594 287.785156 C 149.679688 287.398438 148.433594 287.15625 147 287.25 L 146.71875 288.167969 C 146.265625 289.457031 145.730469 290.667969 145.15625 291.90625 C 143.648438 295.148438 142.25 298.429688 140.953125 301.757812 L 140.496094 302.882812 C 139.902344 304.441406 139.367188 305.890625 139.460938 307.578125 C 139.9375 310.265625 141.058594 312.835938 142.03125 315.375 L 142.695312 317.132812 C 144.238281 321.222656 145.84375 325.285156 147.460938 329.34375 C 149.210938 333.734375 150.84375 338.160156 152.4375 342.609375 L 152.769531 343.535156 C 153.480469 345.519531 154.179688 347.507812 154.875 349.5 L 155.15625 350.300781 C 155.421875 351.058594 155.683594 351.820312 155.941406 352.578125 L 156.390625 353.878906 C 156.757812 355.148438 157.003906 356.4375 157.125 357.75 L 156.75 358.125 C 155.234375 358.042969 154.257812 357.828125 152.945312 357.050781 C 152.539062 356.75 152.132812 356.445312 151.734375 356.132812 L 150.347656 355.101562 C 149.988281 354.828125 149.988281 354.828125 149.617188 354.550781 C 148.367188 353.621094 147.082031 352.738281 145.804688 351.84375 C 140.671875 348.230469 135.636719 344.5 130.722656 340.597656 C 129.15625 339.359375 127.570312 338.148438 125.984375 336.9375 C 125.453125 336.527344 124.917969 336.121094 124.382812 335.710938 C 120.832031 332.992188 117.273438 330.285156 113.671875 327.632812 C 113.382812 327.417969 113.089844 327.203125 112.789062 326.984375 C 111.40625 325.964844 110.019531 324.957031 108.621094 323.960938 L 107.847656 323.402344 C 107.375 323.066406 106.902344 322.730469 106.425781 322.398438 C 104.542969 321.042969 103.1875 319.570312 102.101562 317.535156 L 101.523438 316.226562 L 101.203125 315.507812 C 100.863281 314.746094 100.527344 313.984375 100.195312 313.21875 L 99.488281 311.625 C 98.917969 310.34375 98.351562 309.0625 97.789062 307.78125 C 97.414062 306.933594 97.039062 306.085938 96.664062 305.242188 C 96.203125 304.210938 95.742188 303.175781 95.285156 302.144531 L 94.5 300.375 L 93.992188 299.230469 C 90.855469 292.167969 87.621094 285.15625 84.316406 278.167969 L 83.429688 276.289062 C 82.433594 274.179688 81.425781 272.078125 80.40625 269.980469 C 79.8125 268.742188 79.226562 267.5 78.644531 266.257812 L 77.367188 263.601562 L 76.785156 262.351562 C 75.925781 260.582031 75.160156 259.078125 73.59375 257.851562 C 73.070312 257.511719 72.539062 257.183594 72 256.875 L 71.117188 256.363281 C 70.132812 255.816406 69.136719 255.300781 68.132812 254.789062 L 66.996094 254.203125 C 59.53125 250.390625 51.941406 246.886719 44.273438 243.503906 C 40.125 241.667969 35.984375 239.8125 31.851562 237.9375 L 30.851562 237.484375 C 25.660156 235.132812 20.472656 232.769531 15.292969 230.394531 C 13.023438 229.351562 10.753906 228.316406 8.472656 227.304688 L 7.414062 226.835938 C 6.800781 226.5625 6.1875 226.292969 5.570312 226.027344 C 3.863281 225.269531 2.089844 224.464844 0.75 223.125 C 0.378906 217.640625 1.0625 212.132812 1.546875 206.675781 C 2.511719 195.839844 3.261719 185.007812 3.75 174.140625 L 3.792969 173.1875 C 3.929688 170.144531 4.0625 167.101562 4.195312 164.058594 C 4.457031 158.027344 4.738281 152 5.027344 145.96875 L 5.347656 139.226562 C 6.011719 125.195312 6.667969 111.164062 7.273438 97.132812 L 7.335938 95.664062 C 7.53125 91.058594 7.730469 86.453125 7.921875 81.84375 C 8.265625 73.542969 8.640625 65.246094 9.113281 56.949219 C 9.15625 56.144531 9.203125 55.335938 9.246094 54.53125 C 9.632812 47.5625 10.390625 40.671875 11.410156 33.769531 C 11.558594 32.738281 11.691406 31.710938 11.808594 30.679688 L 11.902344 29.910156 C 11.980469 29.222656 12.058594 28.535156 12.132812 27.847656 C 12.394531 26.523438 12.816406 25.535156 13.5 24.375 C 15.058594 23.351562 16.625 23.625 18.375 24 M 148.5 57 C 147.785156 57.734375 147.105469 58.5 146.460938 59.296875 L 145.246094 60.75 L 144.621094 61.503906 C 143.839844 62.4375 143.046875 63.367188 142.246094 64.289062 C 140.753906 66.019531 139.277344 67.761719 137.835938 69.539062 C 136.105469 71.671875 134.300781 73.742188 132.496094 75.816406 C 131.320312 77.171875 130.144531 78.53125 128.976562 79.898438 L 128.417969 80.550781 L 127.308594 81.847656 C 126.742188 82.507812 126.179688 83.167969 125.613281 83.824219 C 123.625 86.136719 121.648438 88.460938 119.679688 90.789062 C 118.230469 92.503906 116.769531 94.210938 115.304688 95.914062 C 113.878906 97.574219 112.464844 99.242188 111.054688 100.914062 C 109.777344 102.421875 108.496094 103.925781 107.203125 105.421875 C 105.859375 106.980469 104.539062 108.558594 103.242188 110.15625 C 101.910156 111.800781 100.511719 113.367188 99.085938 114.933594 C 98.25 115.875 97.449219 116.839844 96.65625 117.820312 C 94.296875 120.730469 91.820312 123.535156 89.359375 126.359375 C 87.078125 128.976562 84.824219 131.605469 82.636719 134.300781 C 80.960938 136.328125 79.222656 138.300781 77.496094 140.285156 C 75.167969 142.960938 72.851562 145.648438 70.617188 148.40625 C 69.285156 150.050781 67.886719 151.617188 66.460938 153.183594 C 65.625 154.125 64.824219 155.089844 64.03125 156.070312 C 62.074219 158.484375 60.035156 160.820312 57.992188 163.164062 C 55.40625 166.140625 52.851562 169.148438 50.304688 172.164062 C 49.046875 173.648438 47.789062 175.128906 46.523438 176.601562 L 45.957031 177.261719 C 45 178.375 44.042969 179.488281 43.085938 180.601562 C 41.363281 182.601562 39.652344 184.605469 37.992188 186.65625 C 36.660156 188.296875 35.265625 189.863281 33.84375 191.425781 C 32.96875 192.410156 32.140625 193.414062 31.3125 194.4375 C 30.226562 195.785156 29.101562 197.097656 27.9375 198.375 C 26.808594 199.617188 25.714844 200.890625 24.65625 202.195312 C 23.296875 203.875 21.902344 205.511719 20.484375 207.140625 L 17.378906 210.714844 C 16.796875 211.390625 16.214844 212.066406 15.632812 212.742188 L 15.09375 213.363281 C 14.671875 213.855469 14.273438 214.363281 13.875 214.875 L 13.875 215.625 C 24.960938 220.5 24.960938 220.5 36.066406 225.332031 L 37.433594 225.921875 L 38.140625 226.226562 C 42.183594 227.976562 46.222656 229.738281 50.261719 231.496094 C 55.539062 233.789062 55.539062 233.789062 60.816406 236.078125 L 62.179688 236.667969 L 63.492188 237.234375 C 68.234375 239.285156 72.960938 241.363281 77.691406 243.441406 C 81.789062 245.246094 85.890625 247.035156 90 248.8125 C 94.445312 250.734375 98.882812 252.671875 103.3125 254.625 C 108.207031 256.777344 113.105469 258.917969 118.011719 261.039062 C 123.363281 263.355469 128.707031 265.6875 134.050781 268.019531 C 136.207031 268.957031 138.363281 269.898438 140.519531 270.835938 L 144.140625 272.414062 L 145.039062 272.804688 C 148.617188 274.363281 152.195312 275.929688 155.773438 277.5 L 156.84375 277.96875 C 158.558594 278.722656 160.273438 279.476562 161.988281 280.234375 L 164.691406 281.421875 C 165.417969 281.742188 166.148438 282.058594 166.875 282.375 L 167.933594 282.835938 C 168.78125 283.191406 168.78125 283.191406 169.871094 283.089844 C 171.261719 282.671875 171.910156 282.074219 172.945312 281.0625 L 174.023438 280.039062 L 174.574219 279.511719 C 175.765625 278.40625 177.050781 277.402344 178.320312 276.382812 C 179.078125 275.765625 179.824219 275.140625 180.5625 274.5 L 181.167969 273.984375 C 181.746094 273.484375 182.324219 272.980469 182.898438 272.472656 L 184.007812 271.523438 L 185.042969 270.621094 L 186 270 C 186.757812 270 186.757812 270 187.5 270.375 C 188.402344 271.03125 188.402344 271.03125 189.398438 271.875 L 190.507812 272.804688 L 191.625 273.75 C 192.28125 274.28125 192.9375 274.8125 193.59375 275.34375 C 195.582031 276.96875 197.519531 278.648438 199.453125 280.339844 C 199.898438 280.730469 200.347656 281.117188 200.800781 281.503906 C 201.253906 281.898438 201.695312 282.308594 202.125 282.730469 L 202.875 283.125 C 204.824219 282.972656 206.4375 282.4375 208.195312 281.625 L 208.96875 281.277344 C 209.523438 281.027344 210.078125 280.773438 210.628906 280.523438 C 211.828125 279.976562 213.03125 279.433594 214.234375 278.894531 L 216.132812 278.039062 C 219.472656 276.53125 222.832031 275.070312 226.195312 273.609375 L 229.875 272.007812 L 230.800781 271.605469 C 233.039062 270.632812 235.273438 269.652344 237.503906 268.667969 L 238.480469 268.242188 L 240.429688 267.382812 C 245.730469 265.046875 251.039062 262.746094 256.363281 260.472656 C 261.480469 258.285156 266.578125 256.054688 271.671875 253.8125 L 273.625 252.953125 L 274.605469 252.523438 C 278.304688 250.894531 282.011719 249.28125 285.71875 247.667969 C 290.125 245.75 294.53125 243.824219 298.929688 241.882812 C 304.285156 239.523438 309.65625 237.195312 315.039062 234.894531 C 319.019531 233.195312 322.992188 231.464844 326.953125 229.710938 C 331.136719 227.859375 335.324219 226.023438 339.523438 224.210938 C 340.398438 223.832031 341.269531 223.453125 342.144531 223.074219 C 344.6875 221.972656 347.230469 220.878906 349.789062 219.8125 C 350.847656 219.367188 351.910156 218.917969 352.96875 218.472656 C 353.464844 218.261719 353.960938 218.058594 354.457031 217.851562 C 355.136719 217.574219 355.816406 217.289062 356.492188 217 L 357.644531 216.523438 L 358.5 216 C 358.917969 215.285156 358.917969 215.285156 358.875 214.5 C 358.253906 213.636719 357.582031 212.816406 356.859375 212.039062 C 356.4375 211.566406 356.015625 211.09375 355.59375 210.617188 L 354.960938 209.910156 C 354.183594 209.035156 353.445312 208.125 352.710938 207.210938 C 350.980469 205.078125 349.175781 203.007812 347.371094 200.933594 C 346.195312 199.578125 345.019531 198.21875 343.851562 196.851562 L 343.292969 196.199219 L 342.179688 194.898438 C 341.433594 194.027344 340.6875 193.152344 339.9375 192.28125 L 338.816406 190.972656 C 337.863281 189.863281 336.914062 188.753906 335.960938 187.648438 C 334.238281 185.648438 332.527344 183.644531 330.867188 181.59375 C 329.535156 179.949219 328.136719 178.382812 326.710938 176.816406 C 325.875 175.875 325.074219 174.910156 324.28125 173.929688 C 322.929688 172.261719 321.542969 170.628906 320.132812 169.007812 L 318.246094 166.839844 C 315.917969 164.164062 313.601562 161.476562 311.367188 158.71875 C 310.035156 157.078125 308.640625 155.511719 307.21875 153.949219 C 306.046875 152.632812 304.949219 151.261719 303.84375 149.894531 C 303.023438 148.90625 302.179688 147.949219 301.3125 147 C 299.878906 145.425781 298.53125 143.796875 297.195312 142.144531 C 296.089844 140.804688 294.953125 139.496094 293.8125 138.1875 C 292.378906 136.542969 290.964844 134.890625 289.59375 133.195312 C 288.535156 131.890625 287.441406 130.617188 286.3125 129.375 C 285.183594 128.132812 284.089844 126.859375 283.03125 125.554688 C 281.074219 123.140625 279.03125 120.804688 276.992188 118.460938 C 275.464844 116.699219 273.953125 114.925781 272.4375 113.15625 C 271.863281 112.484375 271.289062 111.816406 270.710938 111.148438 C 268.988281 109.148438 267.277344 107.144531 265.617188 105.09375 C 264.285156 103.449219 262.886719 101.882812 261.460938 100.316406 C 260.332031 99.042969 259.265625 97.71875 258.195312 96.394531 C 257.089844 95.054688 255.953125 93.746094 254.8125 92.4375 C 253.378906 90.792969 251.964844 89.140625 250.59375 87.445312 C 249.535156 86.140625 248.441406 84.867188 247.3125 83.625 C 246.183594 82.382812 245.089844 81.109375 244.03125 79.804688 C 242.074219 77.390625 240.03125 75.054688 237.992188 72.710938 C 236.464844 70.949219 234.953125 69.175781 233.4375 67.40625 C 232.863281 66.734375 232.289062 66.066406 231.710938 65.398438 L 230.554688 64.054688 L 229.988281 63.398438 C 229.105469 62.371094 228.234375 61.332031 227.394531 60.265625 L 226.5 59.132812 L 225.726562 58.128906 C 225.058594 57.351562 225.058594 57.351562 224.242188 56.996094 L 223.5 57 C 222.757812 57.523438 222.757812 57.523438 222.09375 58.3125 C 221.113281 59.359375 220.132812 60.355469 219.046875 61.289062 C 217.257812 62.832031 215.503906 64.414062 213.75 66 C 210.191406 69.214844 210.191406 69.214844 208.546875 70.640625 C 207.078125 71.917969 205.644531 73.234375 204.210938 74.554688 C 202.703125 75.941406 201.183594 77.320312 199.65625 78.6875 C 199.058594 79.222656 198.460938 79.761719 197.867188 80.300781 C 195.417969 82.523438 192.921875 84.691406 190.390625 86.820312 C 189.9375 87.210938 189.496094 87.613281 189.058594 88.023438 L 188.371094 88.660156 L 187.753906 89.246094 L 187.125 89.625 C 186.355469 89.542969 186.355469 89.542969 185.625 89.25 C 184.722656 88.511719 184.722656 88.511719 183.726562 87.5625 C 182.308594 86.226562 180.863281 84.960938 179.34375 83.742188 C 177.929688 82.601562 176.628906 81.425781 175.371094 80.121094 C 174.5 79.25 173.570312 78.460938 172.636719 77.65625 C 171.511719 76.664062 170.410156 75.644531 169.3125 74.625 C 167.773438 73.199219 166.222656 71.789062 164.632812 70.414062 C 163.683594 69.582031 162.746094 68.726562 161.8125 67.875 C 160.636719 66.800781 159.453125 65.734375 158.25 64.6875 C 157.046875 63.640625 155.863281 62.574219 154.6875 61.5 L 153.632812 60.542969 C 152.996094 59.964844 152.363281 59.382812 151.734375 58.800781 L 150.9375 58.078125 L 150.246094 57.441406 L 149.625 57 Z M 148.5 57 "/><path style=" stroke:none;fill-rule:nonzero;fill:#000000;fill-opacity:1;" d="M 147 72 L 148.875 72 L 149.25 73.125 C 149.082031 73.828125 149.082031 73.828125 148.773438 74.628906 L 148.421875 75.546875 L 148.027344 76.546875 L 147.617188 77.601562 C 145.917969 81.914062 144.054688 86.15625 142.195312 90.398438 L 141.046875 93.035156 C 140.460938 94.371094 139.878906 95.707031 139.296875 97.042969 C 137.683594 100.738281 136.082031 104.4375 134.488281 108.136719 C 132.070312 113.742188 129.648438 119.339844 127.214844 124.9375 C 126.117188 127.472656 125.015625 130.007812 123.917969 132.542969 L 123.390625 133.761719 C 122.433594 135.964844 121.472656 138.167969 120.503906 140.367188 C 119.964844 141.59375 119.425781 142.820312 118.890625 144.050781 C 118.648438 144.601562 118.40625 145.15625 118.160156 145.707031 C 117.828125 146.449219 117.5 147.199219 117.175781 147.945312 L 116.628906 149.1875 C 116.195312 150.542969 116.144531 151.582031 116.25 153 C 116.484375 154.007812 116.484375 154.007812 116.875 154.980469 L 117.316406 156.164062 L 117.820312 157.476562 C 118 157.953125 118.179688 158.433594 118.359375 158.910156 C 118.777344 160.027344 119.199219 161.144531 119.621094 162.257812 C 120.488281 164.550781 121.347656 166.84375 122.203125 169.136719 C 123.738281 173.234375 125.277344 177.335938 126.816406 181.433594 C 127.777344 183.988281 128.734375 186.542969 129.691406 189.097656 L 130.023438 189.980469 L 131.3125 193.421875 C 132.511719 196.621094 133.714844 199.824219 134.917969 203.023438 C 143.027344 224.605469 143.027344 224.605469 145.402344 231.089844 C 145.589844 231.601562 145.777344 232.113281 145.96875 232.625 C 146.214844 233.300781 146.460938 233.976562 146.707031 234.652344 L 147.105469 235.742188 C 147.375 236.625 147.375 236.625 147.375 237.75 L 146.691406 237.878906 C 141.214844 238.9375 135.765625 240.113281 130.339844 241.410156 L 128.953125 241.742188 L 127.71875 242.039062 C 126.75 242.25 126.75 242.25 126 242.25 L 126 243 L 126.667969 243.3125 C 127.46875 243.734375 128.09375 244.183594 128.789062 244.757812 L 129.515625 245.359375 L 130.289062 246 C 132.148438 247.53125 134.019531 249.039062 135.9375 250.5 C 138.03125 252.097656 140.078125 253.75 142.117188 255.414062 C 144.382812 257.261719 146.671875 259.066406 148.972656 260.863281 C 149.648438 261.394531 150.316406 261.921875 150.988281 262.457031 L 152.34375 263.53125 L 153 264.054688 C 154.601562 265.316406 156.261719 266.464844 157.988281 267.550781 L 158.625 268.125 L 158.625 269.625 C 157.558594 269.71875 156.679688 269.769531 155.625 269.625 C 154.953125 269.199219 154.285156 268.773438 153.621094 268.335938 C 151.59375 267.140625 149.386719 266.261719 147.230469 265.324219 C 145.710938 264.660156 144.195312 263.992188 142.679688 263.324219 L 141.757812 262.917969 C 139.066406 261.730469 136.398438 260.492188 133.734375 259.242188 C 129.46875 257.242188 125.164062 255.355469 120.839844 253.496094 C 120.609375 253.394531 120.375 253.292969 120.132812 253.191406 L 119.429688 252.886719 C 109.703125 248.699219 100.003906 244.375 90.46875 239.765625 C 86.746094 237.964844 82.980469 236.269531 79.203125 234.585938 L 78.488281 234.265625 L 77.75 233.9375 C 74.71875 232.585938 71.699219 231.210938 68.675781 229.839844 C 63.605469 227.542969 58.527344 225.257812 53.433594 223.003906 C 35.160156 214.921875 35.160156 214.921875 28.875 211.125 C 29.640625 209.761719 30.480469 208.65625 31.546875 207.515625 C 32.730469 206.222656 33.867188 204.917969 34.96875 203.554688 C 36.925781 201.140625 38.964844 198.804688 41.007812 196.460938 C 43.59375 193.484375 46.148438 190.476562 48.695312 187.460938 C 50.515625 185.308594 52.347656 183.171875 54.179688 181.039062 C 55.308594 179.722656 56.433594 178.410156 57.558594 177.097656 C 58.511719 175.988281 59.460938 174.878906 60.414062 173.773438 C 62.101562 171.8125 63.785156 169.847656 65.414062 167.835938 C 67.148438 165.703125 68.949219 163.632812 70.753906 161.558594 C 71.933594 160.203125 73.105469 158.84375 74.273438 157.476562 L 74.832031 156.824219 L 75.941406 155.527344 C 76.507812 154.867188 77.070312 154.210938 77.636719 153.550781 C 79.453125 151.433594 81.265625 149.316406 83.0625 147.1875 C 85.425781 144.390625 87.808594 141.613281 90.195312 138.835938 C 92.203125 136.503906 94.199219 134.160156 96.1875 131.8125 C 98.550781 129.015625 100.933594 126.238281 103.320312 123.460938 C 105.328125 121.128906 107.324219 118.785156 109.3125 116.4375 C 110.734375 114.753906 112.164062 113.074219 113.601562 111.398438 L 114.167969 110.738281 C 115.125 109.625 116.082031 108.511719 117.039062 107.398438 C 118.730469 105.433594 120.410156 103.472656 122.039062 101.460938 C 123.773438 99.328125 125.574219 97.257812 127.378906 95.183594 C 128.558594 93.828125 129.730469 92.46875 130.898438 91.101562 L 131.457031 90.449219 L 132.570312 89.148438 C 133.503906 88.058594 134.4375 86.964844 135.375 85.875 L 139.3125 81.28125 L 140.429688 79.980469 C 141.414062 78.828125 142.402344 77.675781 143.394531 76.527344 L 144.023438 75.800781 C 144.421875 75.339844 144.820312 74.875 145.222656 74.414062 C 146.214844 73.28125 146.214844 73.28125 147 72 "/><path style=" stroke:none;fill-rule:nonzero;fill:#000000;fill-opacity:1;" d="M 215.625 76.5 L 216.75 76.5 C 217.769531 78.488281 218.707031 80.519531 219.554688 82.589844 L 219.921875 83.476562 C 220.179688 84.109375 220.441406 84.742188 220.699219 85.375 C 221.410156 87.101562 222.125 88.824219 222.835938 90.550781 L 223.285156 91.632812 C 224.839844 95.390625 226.402344 99.140625 227.976562 102.890625 L 228.824219 104.910156 C 230.238281 108.292969 231.65625 111.675781 233.078125 115.058594 L 233.503906 116.074219 C 234.621094 118.746094 235.738281 121.414062 236.851562 124.085938 C 237.730469 126.183594 238.609375 128.273438 239.496094 130.367188 C 240.09375 131.78125 240.6875 133.199219 241.28125 134.617188 C 241.566406 135.285156 241.847656 135.957031 242.132812 136.625 C 242.527344 137.554688 242.917969 138.480469 243.304688 139.410156 L 243.65625 140.226562 L 243.980469 141.003906 L 244.257812 141.664062 L 244.5 142.5 L 244.910156 143.878906 C 244.996094 144.671875 244.996094 144.671875 244.875 145.5 C 244.046875 146.824219 242.949219 147.847656 241.828125 148.925781 L 240.832031 149.921875 C 239.929688 150.816406 239.019531 151.710938 238.109375 152.597656 C 237.152344 153.527344 236.207031 154.472656 235.261719 155.414062 C 233.464844 157.199219 231.660156 158.972656 229.851562 160.746094 C 227.40625 163.144531 224.96875 165.554688 222.535156 167.96875 L 220.191406 170.285156 C 219.066406 171.398438 217.9375 172.511719 216.804688 173.625 C 216.269531 174.148438 215.734375 174.675781 215.199219 175.203125 C 214.546875 175.84375 213.898438 176.480469 213.246094 177.121094 C 211.667969 178.675781 210.160156 180.265625 208.71875 181.945312 C 207.867188 182.921875 206.964844 183.832031 206.050781 184.75 L 205.476562 185.324219 C 204.859375 185.941406 204.246094 186.554688 203.628906 187.171875 L 202.335938 188.464844 C 201.4375 189.367188 200.535156 190.265625 199.636719 191.160156 C 198.484375 192.3125 197.328125 193.46875 196.179688 194.621094 C 195.289062 195.511719 194.402344 196.398438 193.511719 197.289062 L 192.234375 198.566406 C 191.644531 199.15625 191.050781 199.75 190.457031 200.339844 L 189.4375 201.359375 C 188.625 202.125 188.625 202.125 187.875 202.5 C 186.703125 202.5625 185.632812 202.433594 184.5 202.125 C 183.449219 201.464844 182.648438 200.632812 181.800781 199.734375 L 181.078125 199 C 180.324219 198.226562 179.574219 197.449219 178.828125 196.664062 C 178.324219 196.148438 177.820312 195.632812 177.316406 195.121094 C 175.519531 193.28125 173.734375 191.445312 172.0625 189.496094 C 170.570312 187.785156 168.984375 186.183594 167.375 184.585938 L 166.421875 183.636719 C 165.742188 182.960938 165.066406 182.28125 164.386719 181.605469 C 163.308594 180.535156 162.234375 179.464844 161.160156 178.390625 C 158.878906 176.113281 156.597656 173.839844 154.3125 171.5625 C 151.847656 169.105469 149.382812 166.648438 146.917969 164.1875 C 145.679688 162.953125 144.441406 161.71875 143.203125 160.488281 L 141.25 158.539062 L 140.367188 157.660156 C 138.824219 156.117188 137.347656 154.542969 135.929688 152.882812 C 135.183594 152.03125 134.378906 151.261719 133.546875 150.492188 L 132.59375 149.582031 C 131.941406 148.964844 131.285156 148.351562 130.621094 147.742188 L 129.679688 146.835938 L 128.820312 146.03125 L 128.25 145.125 C 128.28125 143.015625 129.0625 141.246094 129.898438 139.34375 L 130.289062 138.4375 C 130.5625 137.796875 130.839844 137.15625 131.121094 136.515625 C 131.710938 135.15625 132.296875 133.792969 132.882812 132.429688 C 133.175781 131.742188 133.472656 131.058594 133.769531 130.371094 C 134.929688 127.671875 136.066406 124.964844 137.179688 122.25 L 138.253906 119.644531 L 138.539062 118.949219 C 140.035156 115.320312 141.550781 111.695312 143.0625 108.070312 L 144.023438 105.769531 C 145.539062 102.128906 147.054688 98.492188 148.574219 94.851562 L 150.628906 89.921875 L 152.082031 86.441406 L 152.976562 84.296875 L 153.378906 83.335938 C 154.269531 81.1875 155.144531 79.035156 156 76.875 C 156.953125 76.722656 156.953125 76.722656 158.25 76.875 C 159.289062 77.578125 160.136719 78.449219 161.015625 79.335938 C 161.519531 79.824219 162.019531 80.3125 162.523438 80.800781 L 163.199219 81.472656 C 164.117188 82.359375 165.078125 83.183594 166.042969 84.011719 C 167.28125 85.109375 168.480469 86.242188 169.6875 87.375 C 171.332031 88.917969 172.984375 90.441406 174.691406 91.910156 C 176.09375 93.148438 177.453125 94.433594 178.820312 95.710938 C 180.226562 97.023438 181.660156 98.304688 183.117188 99.5625 C 184.125 100.457031 185.058594 101.410156 186 102.375 C 187.371094 101.894531 188.277344 101.367188 189.320312 100.359375 L 190.117188 99.597656 L 190.945312 98.789062 C 191.515625 98.242188 192.089844 97.691406 192.664062 97.144531 L 193.492188 96.347656 C 194.964844 94.945312 196.480469 93.597656 198 92.25 C 199.992188 90.464844 201.980469 88.667969 203.953125 86.859375 L 204.523438 86.335938 C 205.472656 85.464844 206.421875 84.589844 207.363281 83.714844 C 209.347656 81.878906 211.351562 80.070312 213.398438 78.304688 L 214.023438 77.757812 C 214.539062 77.316406 215.082031 76.90625 215.625 76.5 "/><path style=" stroke:none;fill-rule:nonzero;fill:#000000;fill-opacity:1;" d="M 224.25 72 C 225.042969 71.839844 225.042969 71.839844 226.125 72 C 227.027344 72.746094 227.734375 73.644531 228.46875 74.554688 L 229.117188 75.332031 L 231.949219 78.785156 C 232.496094 79.453125 233.039062 80.125 233.585938 80.796875 C 234.386719 81.761719 235.214844 82.695312 236.0625 83.625 C 237.191406 84.867188 238.285156 86.140625 239.34375 87.445312 C 240.695312 89.113281 242.082031 90.746094 243.492188 92.367188 L 244.117188 93.085938 L 245.378906 94.535156 C 247.707031 97.210938 250.023438 99.898438 252.257812 102.65625 C 253.589844 104.300781 254.988281 105.867188 256.414062 107.433594 C 257.25 108.375 258.050781 109.339844 258.84375 110.320312 C 260.800781 112.734375 262.84375 115.070312 264.882812 117.414062 C 266.410156 119.175781 267.921875 120.949219 269.4375 122.71875 C 270.011719 123.390625 270.585938 124.058594 271.164062 124.726562 C 272.886719 126.726562 274.597656 128.730469 276.257812 130.78125 C 277.589844 132.425781 278.988281 133.992188 280.414062 135.558594 C 281.25 136.5 282.050781 137.464844 282.84375 138.445312 C 284.800781 140.859375 286.84375 143.195312 288.882812 145.539062 C 290.410156 147.300781 291.921875 149.074219 293.4375 150.84375 C 294.011719 151.515625 294.585938 152.183594 295.164062 152.851562 C 296.886719 154.851562 298.597656 156.855469 300.257812 158.90625 C 301.589844 160.550781 302.988281 162.117188 304.414062 163.683594 C 305.25 164.625 306.050781 165.589844 306.84375 166.570312 C 308.800781 168.984375 310.84375 171.320312 312.882812 173.664062 C 314.410156 175.425781 315.921875 177.199219 317.4375 178.96875 C 318.011719 179.640625 318.585938 180.308594 319.164062 180.976562 C 320.886719 182.976562 322.597656 184.980469 324.257812 187.03125 C 325.589844 188.671875 326.984375 190.238281 328.40625 191.800781 C 329.578125 193.117188 330.675781 194.488281 331.78125 195.855469 C 332.601562 196.84375 333.445312 197.800781 334.3125 198.75 C 335.742188 200.320312 337.085938 201.941406 338.417969 203.59375 C 339.148438 204.488281 339.90625 205.359375 340.671875 206.222656 L 341.347656 206.988281 C 341.792969 207.488281 342.238281 207.988281 342.6875 208.484375 L 343.300781 209.179688 L 343.855469 209.796875 L 344.25 210.375 L 344.25 211.5 C 340.074219 213.585938 340.074219 213.585938 339.226562 214.011719 C 338.496094 214.375 337.769531 214.742188 337.039062 215.113281 C 334.121094 216.585938 331.164062 217.984375 328.171875 219.304688 C 327.464844 219.621094 326.757812 219.933594 326.050781 220.25 L 324.535156 220.925781 C 321.628906 222.21875 318.730469 223.523438 315.832031 224.832031 L 311.992188 226.558594 L 310.039062 227.4375 C 307.820312 228.4375 305.601562 229.433594 303.386719 230.429688 C 302.148438 230.988281 300.910156 231.546875 299.671875 232.101562 L 298.75 232.515625 C 295.117188 234.148438 291.492188 235.785156 287.867188 237.429688 L 286.792969 237.914062 C 285.085938 238.6875 283.378906 239.460938 281.671875 240.238281 C 278.90625 241.492188 276.132812 242.746094 273.34375 243.953125 L 272.089844 244.496094 C 271.125 244.875 271.125 244.875 270.375 244.875 C 270.429688 244.230469 270.429688 244.230469 270.75 243.375 C 271.429688 242.765625 272.140625 242.195312 272.882812 241.664062 C 273.328125 241.332031 273.773438 241 274.21875 240.667969 L 274.921875 240.148438 C 276.0625 239.296875 277.179688 238.417969 278.296875 237.539062 L 278.960938 237.015625 C 281.636719 234.90625 284.292969 232.789062 286.804688 230.484375 C 288.878906 228.59375 291.085938 226.890625 293.300781 225.171875 C 294.480469 224.25 295.644531 223.3125 296.8125 222.375 C 298.445312 221.0625 300.085938 219.761719 301.734375 218.476562 C 302.785156 217.65625 303.832031 216.828125 304.875 216 L 305.855469 215.226562 L 306.679688 214.546875 L 307.367188 213.988281 C 307.929688 213.375 307.929688 213.375 308.238281 212.480469 L 308.25 211.5 C 307.613281 210.546875 307.613281 210.546875 306.65625 209.648438 C 305.109375 208.058594 303.714844 206.417969 302.367188 204.65625 C 301.128906 203.046875 299.878906 201.558594 298.398438 200.160156 C 297.253906 198.996094 296.265625 197.703125 295.246094 196.433594 C 294.417969 195.429688 293.566406 194.460938 292.6875 193.5 C 291.21875 191.886719 289.839844 190.214844 288.46875 188.519531 C 287.382812 187.207031 286.238281 185.957031 285.09375 184.699219 C 284.226562 183.722656 283.402344 182.726562 282.585938 181.710938 C 280.289062 178.875 277.84375 176.191406 275.25 173.625 C 273.3125 178.300781 271.53125 183.03125 269.789062 187.78125 C 268.035156 192.570312 266.265625 197.355469 264.472656 202.132812 L 263.410156 204.972656 C 262.328125 207.871094 261.226562 210.761719 260.101562 213.644531 L 259.234375 215.882812 C 258.96875 216.5625 258.699219 217.238281 258.429688 217.917969 C 257.628906 219.984375 257.015625 221.648438 257.25 223.875 L 257.929688 224 C 263.410156 225.007812 268.851562 226.132812 274.289062 227.34375 L 275.199219 227.546875 C 276.058594 227.738281 276.921875 227.929688 277.78125 228.121094 L 278.5625 228.296875 C 279.605469 228.535156 280.609375 228.789062 281.625 229.125 C 281.765625 230.132812 281.765625 230.132812 281.625 231.375 C 280.878906 232.128906 280.230469 232.671875 279.375 233.273438 C 278.890625 233.632812 278.40625 233.992188 277.921875 234.351562 L 277.152344 234.917969 C 275.851562 235.890625 274.605469 236.929688 273.351562 237.960938 C 271.566406 239.417969 269.769531 240.851562 267.9375 242.25 C 265.585938 244.042969 263.296875 245.902344 261.007812 247.773438 C 260.765625 247.96875 260.519531 248.164062 260.269531 248.367188 C 259.734375 248.808594 259.210938 249.257812 258.695312 249.71875 C 256.230469 251.851562 253.566406 253.128906 250.597656 254.382812 C 249.417969 254.882812 248.242188 255.394531 247.066406 255.90625 C 246.4375 256.179688 245.808594 256.453125 245.179688 256.722656 C 241.828125 258.175781 238.5 259.683594 235.171875 261.199219 C 233.839844 261.804688 232.507812 262.40625 231.171875 263.007812 C 228.796875 264.078125 226.429688 265.160156 224.058594 266.242188 C 223.332031 266.578125 222.605469 266.910156 221.875 267.242188 C 221.015625 267.628906 220.160156 268.023438 219.304688 268.421875 L 218.183594 268.929688 L 217.226562 269.367188 C 216.375 269.625 216.375 269.625 215.511719 269.480469 L 214.875 269.25 L 214.875 268.5 C 215.433594 267.992188 216.015625 267.511719 216.609375 267.046875 C 218.292969 265.699219 219.949219 264.316406 221.578125 262.898438 C 223.414062 261.3125 225.300781 259.785156 227.238281 258.324219 C 228.894531 257.0625 230.511719 255.757812 232.125 254.4375 C 234.296875 252.660156 236.5 250.933594 238.730469 249.234375 C 240.523438 247.855469 242.269531 246.417969 244.015625 244.984375 L 244.75 244.382812 L 245.398438 243.847656 C 245.953125 243.410156 246.539062 243.015625 247.125 242.625 C 243.625 241.636719 240.09375 240.773438 236.550781 239.941406 C 235.820312 239.769531 235.089844 239.597656 234.363281 239.421875 C 231.503906 238.757812 228.652344 238.191406 225.75 237.75 C 225.980469 236.042969 226.425781 234.554688 227.035156 232.949219 L 227.328125 232.175781 C 227.542969 231.605469 227.761719 231.035156 227.976562 230.46875 C 228.339844 229.511719 228.703125 228.554688 229.066406 227.597656 C 229.480469 226.5 229.894531 225.402344 230.3125 224.304688 C 232.296875 219.0625 234.261719 213.8125 236.230469 208.566406 L 237.207031 205.964844 C 239.644531 199.464844 242.078125 192.957031 244.5 186.449219 L 244.820312 185.582031 C 245.867188 182.765625 246.910156 179.953125 247.953125 177.136719 C 248.445312 175.800781 248.941406 174.46875 249.433594 173.132812 L 249.722656 172.355469 C 250.960938 169.015625 252.21875 165.679688 253.5 162.351562 L 254.320312 160.207031 C 254.800781 158.953125 255.289062 157.695312 255.78125 156.445312 C 255.988281 155.90625 256.191406 155.367188 256.398438 154.828125 L 256.929688 153.464844 C 257.308594 152.277344 257.308594 152.277344 257.183594 151.125 C 256.828125 149.832031 256.355469 148.671875 255.804688 147.453125 L 255.476562 146.714844 C 255.238281 146.1875 255.003906 145.660156 254.765625 145.132812 C 254.117188 143.703125 253.480469 142.269531 252.84375 140.835938 L 252.441406 139.9375 C 251.0625 136.835938 249.722656 133.71875 248.390625 130.59375 L 246.984375 127.300781 L 246.636719 126.492188 C 245.480469 123.785156 244.3125 121.082031 243.140625 118.382812 L 242.839844 117.6875 L 241.347656 114.25 C 240.4375 112.152344 239.527344 110.054688 238.617188 107.953125 L 234.351562 98.109375 L 232.832031 94.605469 C 231.789062 92.195312 230.742188 89.785156 229.6875 87.378906 C 224.597656 75.738281 224.597656 75.738281 223.875 73.125 Z M 351.75 36 C 352.035156 37.261719 352.160156 38.394531 352.132812 39.6875 C 352.105469 42.429688 352.253906 45.164062 352.394531 47.902344 L 352.480469 49.664062 L 352.667969 53.453125 C 352.773438 55.492188 352.871094 57.535156 352.972656 59.578125 L 353.296875 66.074219 C 353.6875 74.019531 354.074219 81.964844 354.457031 89.910156 L 354.507812 90.996094 C 354.796875 96.941406 355.082031 102.882812 355.367188 108.824219 C 356.496094 132.296875 357.597656 155.769531 358.5 179.25 L 357.75 179.25 C 357.214844 178.640625 356.699219 178.015625 356.203125 177.375 C 354.9375 175.789062 353.640625 174.324219 352.167969 172.929688 C 351.21875 171.964844 350.34375 170.949219 349.457031 169.925781 C 348.328125 168.648438 347.15625 167.410156 345.984375 166.171875 C 344.160156 164.238281 342.355469 162.289062 340.585938 160.304688 C 339.394531 158.976562 338.179688 157.667969 336.96875 156.359375 C 335.703125 154.992188 334.445312 153.621094 333.1875 152.25 C 331.753906 150.683594 330.316406 149.121094 328.875 147.5625 C 323.476562 141.71875 323.476562 141.71875 320.835938 138.773438 C 318.980469 136.707031 317.09375 134.667969 315.207031 132.628906 C 307.390625 124.179688 307.390625 124.179688 304.382812 120.820312 C 302.71875 118.964844 301.011719 117.144531 299.308594 115.324219 C 297.820312 113.730469 296.355469 112.125 294.90625 110.5 C 293.515625 108.964844 292.097656 107.457031 290.675781 105.949219 C 289.582031 104.785156 288.511719 103.605469 287.464844 102.402344 C 286.0625 100.789062 284.597656 99.238281 283.125 97.6875 C 281.425781 95.898438 279.757812 94.09375 278.140625 92.226562 C 277.09375 91.039062 276.007812 89.886719 274.921875 88.734375 C 272.878906 86.554688 270.863281 84.351562 268.875 82.125 L 265.5 78.375 C 266.339844 77.453125 267.164062 76.902344 268.265625 76.328125 L 269.277344 75.796875 L 270.375 75.234375 L 271.523438 74.640625 C 274.902344 72.902344 278.328125 71.253906 281.761719 69.617188 C 284.324219 68.394531 286.847656 67.121094 289.34375 65.765625 C 291.421875 64.648438 293.542969 63.632812 295.679688 62.621094 C 299.941406 60.597656 304.167969 58.5 308.386719 56.382812 C 309.652344 55.75 310.917969 55.113281 312.183594 54.480469 C 314.871094 53.132812 317.5625 51.785156 320.25 50.4375 C 323.371094 48.871094 326.496094 47.308594 329.617188 45.742188 C 330.847656 45.125 332.078125 44.507812 333.308594 43.890625 C 338.1875 41.449219 343.089844 39.058594 348.019531 36.722656 C 349.375 36.078125 350.222656 35.96875 351.75 36 M 22.125 35.625 C 24.054688 36.015625 25.734375 36.796875 27.46875 37.699219 L 29.066406 38.511719 L 29.902344 38.941406 C 31.316406 39.664062 32.738281 40.371094 34.160156 41.078125 L 35.964844 41.980469 L 36.894531 42.449219 L 57.199219 52.597656 L 69.769531 58.882812 C 71.894531 59.945312 74.019531 61.011719 76.144531 62.078125 C 85.070312 66.566406 85.070312 66.566406 94.0625 70.910156 C 98.621094 73.070312 103.121094 75.355469 107.625 77.625 C 107.023438 78.882812 106.347656 79.785156 105.398438 80.8125 L 104.484375 81.8125 L 103.5 82.875 L 102 84.515625 C 101.300781 85.277344 100.601562 86.039062 99.902344 86.800781 C 99.039062 87.742188 98.175781 88.683594 97.3125 89.625 L 92.671875 94.6875 C 91.816406 95.621094 90.960938 96.554688 90.105469 97.488281 C 88.324219 99.433594 86.539062 101.375 84.75 103.3125 C 80.710938 107.6875 80.710938 107.6875 76.710938 112.101562 C 75.226562 113.753906 73.726562 115.386719 72.214844 117.019531 C 70.96875 118.367188 69.726562 119.722656 68.484375 121.078125 C 66.675781 123.054688 64.851562 125.015625 63.011719 126.964844 C 61.929688 128.117188 60.867188 129.289062 59.832031 130.484375 C 58.261719 132.285156 56.621094 134.015625 54.976562 135.75 C 53.582031 137.226562 52.226562 138.730469 50.898438 140.265625 C 49.847656 141.457031 48.761719 142.609375 47.671875 143.765625 C 46.203125 145.332031 44.742188 146.898438 43.3125 148.5 C 41.898438 150.082031 40.453125 151.636719 39 153.1875 C 37.261719 155.042969 35.542969 156.914062 33.847656 158.808594 C 31.894531 160.980469 29.898438 163.113281 27.914062 165.257812 C 25.773438 167.570312 23.640625 169.890625 21.539062 172.242188 C 20.816406 173.039062 20.082031 173.832031 19.347656 174.621094 L 18.671875 175.34375 C 18.230469 175.816406 17.789062 176.289062 17.34375 176.757812 C 16.230469 177.910156 16.230469 177.910156 15.375 179.25 L 14.625 179.25 L 14.679688 178.183594 C 15.085938 170.035156 15.46875 161.886719 15.835938 153.734375 L 16.15625 146.605469 C 16.886719 130.296875 17.636719 113.988281 18.425781 97.683594 L 18.476562 96.621094 C 18.8125 89.660156 19.152344 82.699219 19.492188 75.742188 C 19.621094 73.121094 19.75 70.503906 19.875 67.882812 C 19.949219 66.367188 20.023438 64.851562 20.097656 63.335938 C 20.179688 61.667969 20.261719 60 20.34375 58.332031 L 20.382812 57.535156 C 20.519531 54.65625 20.640625 51.78125 20.734375 48.898438 L 20.757812 48.109375 C 20.796875 46.878906 20.832031 45.644531 20.863281 44.410156 L 20.902344 43.097656 L 20.933594 41.957031 C 21 40.875 21 40.875 21.203125 39.691406 C 21.398438 38.488281 21.253906 37.554688 21 36.375 Z M 22.125 35.625 "/><path style=" stroke:none;fill-rule:nonzero;fill:#000000;fill-opacity:1;" d="M 123.75 154.5 C 124.804688 154.988281 125.636719 155.519531 126.507812 156.285156 L 127.210938 156.898438 L 127.945312 157.546875 L 128.703125 158.214844 C 129.203125 158.652344 129.703125 159.089844 130.199219 159.53125 C 130.761719 160.027344 131.332031 160.519531 131.902344 161.007812 L 132.75 161.742188 L 133.453125 162.347656 C 134.164062 163.042969 134.800781 163.753906 135.449219 164.507812 C 136.746094 165.996094 138.105469 167.402344 139.507812 168.792969 L 140.257812 169.542969 C 140.792969 170.078125 141.328125 170.609375 141.863281 171.140625 C 142.714844 171.988281 143.5625 172.832031 144.410156 173.679688 C 146.210938 175.472656 148.011719 177.269531 149.8125 179.0625 C 151.902344 181.144531 153.992188 183.222656 156.078125 185.308594 C 156.910156 186.136719 157.742188 186.964844 158.574219 187.792969 C 159.089844 188.304688 159.605469 188.820312 160.117188 189.332031 L 160.808594 190.019531 C 162.191406 191.398438 163.488281 192.828125 164.761719 194.304688 C 165.582031 195.234375 166.445312 196.113281 167.324219 196.984375 L 167.859375 197.515625 C 168.234375 197.890625 168.609375 198.265625 168.988281 198.640625 C 169.585938 199.234375 170.183594 199.828125 170.78125 200.425781 C 172.046875 201.6875 173.316406 202.949219 174.585938 204.210938 C 176.058594 205.675781 177.53125 207.140625 179.003906 208.609375 C 179.589844 209.191406 180.175781 209.773438 180.761719 210.351562 C 182.589844 212.171875 184.359375 214.007812 186 216 C 186.949219 215.796875 187.449219 215.667969 188.210938 215.039062 C 188.449219 214.789062 188.683594 214.542969 188.929688 214.289062 L 189.640625 213.5625 C 190.332031 212.800781 191.015625 212.03125 191.683594 211.253906 C 193.082031 209.652344 194.558594 208.144531 196.066406 206.648438 L 196.917969 205.796875 C 197.527344 205.191406 198.132812 204.585938 198.738281 203.980469 C 199.703125 203.023438 200.664062 202.066406 201.625 201.105469 C 204.011719 198.726562 206.398438 196.34375 208.789062 193.964844 C 210.808594 191.949219 212.832031 189.933594 214.851562 187.917969 C 215.796875 186.976562 216.742188 186.039062 217.683594 185.097656 L 219.433594 183.351562 L 220.222656 182.570312 C 221.671875 181.117188 223.0625 179.613281 224.402344 178.058594 C 225.195312 177.148438 226.035156 176.289062 226.882812 175.4375 L 227.9375 174.378906 L 229.050781 173.261719 L 230.21875 172.089844 C 231.03125 171.273438 231.847656 170.457031 232.660156 169.644531 C 233.695312 168.609375 234.726562 167.574219 235.757812 166.539062 C 236.558594 165.730469 237.367188 164.921875 238.171875 164.117188 C 238.550781 163.738281 238.929688 163.355469 239.3125 162.972656 C 241.511719 160.757812 243.769531 158.675781 246.226562 156.738281 C 247.082031 156.035156 247.855469 155.296875 248.625 154.5 L 249.75 154.875 C 249.148438 158.226562 247.917969 161.332031 246.726562 164.507812 L 246.027344 166.394531 C 245.527344 167.734375 245.027344 169.074219 244.527344 170.414062 C 243.355469 173.558594 242.195312 176.710938 241.03125 179.859375 C 240.355469 181.683594 239.683594 183.507812 239.007812 185.332031 L 235.777344 194.074219 L 235.378906 195.148438 L 233.390625 200.53125 C 232.199219 203.757812 231.007812 206.980469 229.8125 210.207031 C 226.949219 217.945312 224.09375 225.691406 221.25 233.4375 C 218.414062 241.160156 215.570312 248.878906 212.714844 256.589844 C 211.257812 260.527344 209.800781 264.46875 208.347656 268.40625 L 206.296875 273.957031 L 205.609375 275.816406 L 205.125 277.125 C 203.90625 277.382812 203.90625 277.382812 202.5 277.5 C 201.683594 277.066406 201.683594 277.066406 201.011719 276.394531 L 200.25 275.65625 L 199.5 274.875 L 198.789062 274.15625 C 198.085938 273.425781 197.394531 272.691406 196.710938 271.945312 L 195.976562 271.152344 C 195.496094 270.632812 195.015625 270.113281 194.535156 269.59375 C 193.953125 268.960938 193.367188 268.332031 192.773438 267.703125 L 191.859375 266.71875 L 191.078125 265.882812 C 190.449219 265.058594 190.277344 264.636719 190.125 263.625 C 190.277344 262.644531 190.277344 262.644531 190.558594 261.523438 L 190.875 260.246094 L 191.222656 258.867188 L 191.757812 256.722656 C 192.003906 255.722656 192.257812 254.722656 192.511719 253.722656 C 192.890625 252.214844 193.265625 250.710938 193.640625 249.203125 C 193.933594 248.027344 194.226562 246.855469 194.523438 245.683594 L 194.84375 244.402344 L 195.128906 243.277344 C 195.359375 242.3125 195.5625 241.347656 195.75 240.375 L 194.480469 241.644531 C 194.046875 242.078125 193.617188 242.511719 193.1875 242.949219 C 191.6875 244.476562 190.125 245.9375 188.5 247.332031 C 188.027344 247.746094 187.566406 248.179688 187.125 248.625 C 186.433594 248.582031 186.433594 248.582031 185.625 248.25 C 184.8125 247.558594 184.8125 247.558594 183.945312 246.667969 L 182.996094 245.703125 L 182.015625 244.6875 C 181.371094 244.027344 180.726562 243.367188 180.078125 242.707031 L 179.214844 241.816406 C 178.546875 241.101562 178.546875 241.101562 177.75 240.75 C 178.203125 243.445312 178.78125 246.113281 179.476562 248.753906 L 180.03125 250.917969 C 180.320312 252.035156 180.609375 253.152344 180.902344 254.269531 C 181.191406 255.359375 181.46875 256.453125 181.75 257.542969 L 182.015625 258.539062 C 182.570312 260.738281 182.847656 262.855469 182.625 265.125 C 182.15625 266.042969 182.15625 266.042969 181.5 266.671875 L 180.773438 267.402344 L 180 268.125 C 179.5 268.625 179 269.125 178.5 269.625 L 177.738281 270.375 C 177.027344 271.09375 176.367188 271.835938 175.710938 272.601562 C 175.265625 273.109375 174.820312 273.617188 174.375 274.125 L 173.554688 275.078125 C 172.738281 275.964844 171.957031 276.765625 171 277.5 L 169.570312 277.734375 L 168.375 277.125 C 167.972656 276.445312 167.972656 276.445312 167.628906 275.609375 L 167.246094 274.6875 C 166.683594 273.265625 166.136719 271.835938 165.609375 270.398438 L 165.253906 269.429688 C 164.863281 268.371094 164.472656 267.308594 164.085938 266.25 C 163.804688 265.488281 163.527344 264.730469 163.246094 263.96875 C 162.644531 262.339844 162.046875 260.707031 161.445312 259.074219 C 160.484375 256.453125 159.519531 253.835938 158.554688 251.214844 C 158.390625 250.773438 158.226562 250.328125 158.058594 249.871094 L 155.554688 243.070312 C 153.496094 237.484375 151.433594 231.898438 149.367188 226.3125 C 147.226562 220.527344 145.09375 214.738281 142.96875 208.945312 C 140.355469 201.824219 137.738281 194.707031 135.117188 187.59375 C 133.078125 182.042969 131.023438 176.5 128.957031 170.960938 C 128.128906 168.722656 127.292969 166.488281 126.457031 164.25 C 126.160156 163.449219 125.859375 162.648438 125.5625 161.847656 L 125.152344 160.757812 C 124.433594 158.816406 123.792969 156.90625 123.375 154.875 Z M 123.75 154.5 "/><path style=" stroke:none;fill-rule:nonzero;fill:#000000;fill-opacity:1;" d="M 148.125 50.625 C 149.417969 50.71875 150.230469 50.90625 151.324219 51.617188 L 152.273438 52.429688 L 153.347656 53.347656 C 155.007812 54.816406 156.632812 56.320312 158.25 57.832031 C 159.351562 58.859375 160.476562 59.851562 161.617188 60.835938 C 162.566406 61.667969 163.503906 62.523438 164.4375 63.375 C 165.609375 64.441406 166.78125 65.503906 167.976562 66.539062 C 169.457031 67.828125 170.902344 69.15625 172.34375 70.484375 C 173.355469 71.421875 174.386719 72.339844 175.429688 73.242188 C 177.164062 74.746094 178.828125 76.324219 180.5 77.894531 C 182.4375 79.703125 184.394531 81.488281 186.375 83.25 C 187.46875 82.757812 188.230469 82.230469 189.066406 81.371094 L 189.722656 80.699219 L 190.40625 79.992188 C 191.984375 78.386719 193.558594 76.820312 195.28125 75.363281 C 196.527344 74.273438 197.730469 73.132812 198.9375 72 C 200.605469 70.433594 202.28125 68.882812 204.019531 67.386719 C 204.960938 66.566406 205.886719 65.71875 206.8125 64.875 C 208.222656 63.585938 209.652344 62.316406 211.09375 61.0625 C 212.03125 60.238281 212.949219 59.390625 213.867188 58.546875 C 215.59375 56.972656 217.363281 55.480469 219.1875 54.019531 C 220.003906 53.347656 220.777344 52.652344 221.554688 51.9375 C 222.375 51.238281 222.851562 50.960938 223.898438 50.578125 C 225 50.625 225 50.625 226.058594 51.234375 C 227.339844 52.191406 228.367188 53.210938 229.429688 54.398438 L 230.023438 55.050781 C 231.480469 56.664062 232.863281 58.332031 234.226562 60.023438 C 235.289062 61.328125 236.386719 62.597656 237.492188 63.867188 L 238.117188 64.585938 L 239.378906 66.035156 C 241.96875 69.015625 244.53125 72.019531 247.023438 75.085938 C 248.484375 76.871094 249.980469 78.625 251.472656 80.378906 C 251.992188 80.988281 252.507812 81.597656 253.019531 82.207031 C 255.355469 84.96875 257.699219 87.722656 260.054688 90.460938 C 261.183594 91.777344 262.308594 93.089844 263.433594 94.402344 C 264.386719 95.511719 265.335938 96.621094 266.289062 97.726562 C 268.011719 99.726562 269.722656 101.730469 271.382812 103.78125 C 272.714844 105.425781 274.113281 106.992188 275.539062 108.558594 C 276.375 109.5 277.175781 110.464844 277.96875 111.445312 C 279.320312 113.113281 280.707031 114.746094 282.117188 116.367188 L 282.742188 117.085938 L 284.003906 118.535156 C 286.332031 121.210938 288.648438 123.898438 290.882812 126.65625 C 292.214844 128.300781 293.613281 129.867188 295.039062 131.433594 C 295.875 132.375 296.675781 133.339844 297.46875 134.320312 C 299.425781 136.734375 301.464844 139.070312 303.507812 141.414062 C 306.09375 144.390625 308.648438 147.398438 311.195312 150.414062 C 312.449219 151.898438 313.710938 153.375 314.976562 154.851562 L 315.542969 155.511719 C 316.5 156.625 317.457031 157.738281 318.414062 158.851562 C 320.136719 160.851562 321.847656 162.855469 323.507812 164.90625 C 324.839844 166.550781 326.238281 168.117188 327.664062 169.683594 C 328.5 170.625 329.300781 171.589844 330.09375 172.570312 C 331.445312 174.238281 332.832031 175.871094 334.242188 177.492188 L 334.867188 178.210938 L 336.128906 179.660156 C 338.457031 182.335938 340.773438 185.023438 343.007812 187.78125 C 344.339844 189.421875 345.734375 190.988281 347.15625 192.550781 C 348.328125 193.867188 349.425781 195.238281 350.53125 196.605469 C 351.351562 197.59375 352.195312 198.550781 353.0625 199.5 C 354.496094 201.074219 355.84375 202.699219 357.179688 204.355469 C 358.292969 205.703125 359.4375 207.019531 360.585938 208.335938 C 361.203125 209.046875 361.820312 209.757812 362.433594 210.472656 C 362.945312 211.0625 363.460938 211.652344 363.980469 212.238281 L 364.804688 213.210938 L 365.515625 214.03125 C 366 214.875 366 214.875 366.167969 215.988281 C 366 217.125 366 217.125 365.425781 218.042969 C 364.246094 219.261719 363.078125 219.777344 361.53125 220.421875 L 360.628906 220.8125 C 359.648438 221.238281 358.664062 221.652344 357.679688 222.070312 C 356.988281 222.367188 356.296875 222.667969 355.601562 222.964844 C 354.164062 223.585938 352.722656 224.207031 351.28125 224.824219 C 349.230469 225.703125 347.1875 226.59375 345.148438 227.496094 C 344.828125 227.636719 344.507812 227.777344 344.179688 227.925781 L 342.257812 228.773438 C 336.996094 231.089844 331.722656 233.375 326.4375 235.628906 C 321.847656 237.585938 317.285156 239.59375 312.726562 241.617188 C 307.34375 244.007812 301.945312 246.359375 296.53125 248.671875 C 291.46875 250.832031 286.414062 253.011719 281.367188 255.210938 L 280.457031 255.609375 C 278.644531 256.398438 276.835938 257.191406 275.023438 257.980469 C 272.328125 259.160156 269.628906 260.339844 266.929688 261.515625 L 266.023438 261.910156 C 262.511719 263.445312 258.996094 264.96875 255.480469 266.484375 L 254.453125 266.925781 L 252.382812 267.816406 C 244.863281 271.058594 237.371094 274.351562 229.886719 277.667969 C 225.507812 279.605469 221.125 281.527344 216.738281 283.449219 L 215.839844 283.84375 C 215.253906 284.097656 214.671875 284.355469 214.085938 284.609375 C 212.605469 285.253906 211.136719 285.917969 209.675781 286.609375 L 208.769531 287.035156 C 208.207031 287.296875 207.644531 287.566406 207.085938 287.84375 C 205.382812 288.632812 203.976562 288.886719 202.101562 288.855469 C 201.375 288.75 201.375 288.75 200.371094 288.128906 L 199.546875 287.273438 C 198.25 285.988281 196.949219 284.800781 195.515625 283.664062 C 193.984375 282.425781 192.589844 281.128906 191.214844 279.722656 C 190.464844 278.96875 189.695312 278.234375 188.90625 277.523438 L 188.199219 276.878906 C 187.515625 276.363281 187.515625 276.363281 186.792969 275.988281 L 186 276 C 185.226562 276.648438 184.589844 277.273438 183.914062 278.015625 C 182.191406 279.828125 180.414062 281.433594 178.449219 282.984375 C 177.648438 283.648438 176.875 284.339844 176.125 285.058594 L 175.480469 285.675781 C 175.066406 286.074219 174.660156 286.476562 174.253906 286.882812 C 173.332031 287.769531 172.480469 288.386719 171.347656 288.996094 C 168.984375 289.203125 167.128906 288.199219 165 287.25 L 163.835938 286.742188 C 162.625 286.210938 161.421875 285.667969 160.21875 285.117188 C 159.261719 284.683594 158.304688 284.253906 157.347656 283.820312 L 156.578125 283.472656 C 153.246094 281.976562 149.898438 280.511719 146.554688 279.046875 L 142.585938 277.308594 L 141.601562 276.875 C 139.53125 275.96875 137.460938 275.058594 135.394531 274.140625 C 129.871094 271.695312 124.339844 269.28125 118.789062 266.910156 C 114.273438 264.980469 109.773438 263.027344 105.28125 261.046875 L 104.300781 260.617188 L 100.378906 258.890625 C 97.0625 257.433594 93.742188 255.980469 90.421875 254.53125 L 89.535156 254.144531 C 84.132812 251.789062 78.722656 249.457031 73.3125 247.125 C 62.273438 242.363281 51.25 237.566406 40.242188 232.722656 C 36.15625 230.925781 32.0625 229.140625 27.960938 227.367188 C 24.101562 225.699219 20.25 224.019531 16.398438 222.332031 C 15.832031 222.082031 15.265625 221.832031 14.695312 221.585938 C 13.90625 221.238281 13.117188 220.890625 12.328125 220.542969 L 10.953125 219.941406 C 8.160156 218.628906 8.160156 218.628906 7.359375 217.570312 C 7.125 216.75 7.125 216.75 7.171875 215.726562 C 7.589844 214.164062 8.425781 213.222656 9.492188 212.0625 C 9.90625 211.597656 10.316406 211.132812 10.726562 210.667969 L 11.371094 209.957031 C 12.355469 208.851562 13.3125 207.726562 14.273438 206.601562 L 15.398438 205.289062 C 16.457031 204.050781 17.511719 202.808594 18.5625 201.5625 C 20.550781 199.210938 22.550781 196.871094 24.554688 194.539062 C 25.683594 193.222656 26.808594 191.910156 27.933594 190.597656 C 28.886719 189.488281 29.835938 188.378906 30.789062 187.273438 C 32.476562 185.3125 34.160156 183.347656 35.789062 181.335938 C 37.722656 178.957031 39.742188 176.652344 41.753906 174.339844 C 44.082031 171.664062 46.398438 168.976562 48.632812 166.21875 C 49.964844 164.578125 51.359375 163.011719 52.78125 161.449219 C 53.65625 160.464844 54.484375 159.460938 55.3125 158.4375 C 56.398438 157.089844 57.523438 155.777344 58.6875 154.5 C 59.816406 153.257812 60.910156 151.984375 61.96875 150.679688 C 63.320312 149.011719 64.707031 147.378906 66.117188 145.757812 C 66.324219 145.519531 66.53125 145.28125 66.742188 145.039062 L 68.003906 143.589844 C 70.332031 140.914062 72.648438 138.226562 74.882812 135.46875 C 76.214844 133.824219 77.613281 132.257812 79.039062 130.691406 C 80.167969 129.417969 81.234375 128.09375 82.304688 126.769531 C 83.617188 125.179688 84.96875 123.636719 86.324219 122.085938 C 87.542969 120.683594 88.738281 119.261719 89.90625 117.820312 C 91.230469 116.1875 92.617188 114.628906 94.03125 113.074219 C 94.90625 112.089844 95.734375 111.085938 96.5625 110.0625 C 97.648438 108.714844 98.773438 107.402344 99.9375 106.125 C 101.066406 104.882812 102.160156 103.609375 103.21875 102.304688 C 104.570312 100.636719 105.957031 99.003906 107.367188 97.382812 L 107.992188 96.664062 L 109.253906 95.214844 C 111.546875 92.574219 113.835938 89.929688 116.039062 87.210938 C 117.59375 85.296875 119.207031 83.4375 120.824219 81.582031 C 122.296875 79.886719 123.726562 78.167969 125.136719 76.425781 C 126.699219 74.523438 128.3125 72.664062 129.917969 70.800781 C 130.871094 69.695312 131.824219 68.585938 132.773438 67.476562 L 133.339844 66.816406 C 134.585938 65.363281 135.824219 63.902344 137.0625 62.4375 L 138.082031 61.234375 C 138.617188 60.601562 139.148438 59.972656 139.683594 59.335938 C 146.195312 51.589844 146.195312 51.589844 148.125 50.625 M 148.5 57 C 147.785156 57.734375 147.105469 58.5 146.460938 59.296875 L 145.246094 60.75 L 144.621094 61.503906 C 143.839844 62.4375 143.046875 63.367188 142.246094 64.289062 C 140.753906 66.019531 139.277344 67.761719 137.835938 69.539062 C 136.105469 71.671875 134.300781 73.742188 132.496094 75.816406 C 131.320312 77.171875 130.144531 78.53125 128.976562 79.898438 L 128.417969 80.550781 L 127.308594 81.847656 C 126.742188 82.507812 126.179688 83.167969 125.613281 83.824219 C 123.625 86.136719 121.648438 88.460938 119.679688 90.789062 C 118.230469 92.503906 116.769531 94.210938 115.304688 95.914062 C 113.878906 97.574219 112.464844 99.242188 111.054688 100.914062 C 109.777344 102.421875 108.496094 103.925781 107.203125 105.421875 C 105.859375 106.980469 104.539062 108.558594 103.242188 110.15625 C 101.910156 111.800781 100.511719 113.367188 99.085938 114.933594 C 98.25 115.875 97.449219 116.839844 96.65625 117.820312 C 94.296875 120.730469 91.820312 123.535156 89.359375 126.359375 C 87.078125 128.976562 84.824219 131.605469 82.636719 134.300781 C 80.960938 136.328125 79.222656 138.300781 77.496094 140.285156 C 75.167969 142.960938 72.851562 145.648438 70.617188 148.40625 C 69.285156 150.050781 67.886719 151.617188 66.460938 153.183594 C 65.625 154.125 64.824219 155.089844 64.03125 156.070312 C 62.074219 158.484375 60.035156 160.820312 57.992188 163.164062 C 55.40625 166.140625 52.851562 169.148438 50.304688 172.164062 C 49.046875 173.648438 47.789062 175.128906 46.523438 176.601562 L 45.957031 177.261719 C 45 178.375 44.042969 179.488281 43.085938 180.601562 C 41.363281 182.601562 39.652344 184.605469 37.992188 186.65625 C 36.660156 188.296875 35.265625 189.863281 33.84375 191.425781 C 32.96875 192.410156 32.140625 193.414062 31.3125 194.4375 C 30.226562 195.785156 29.101562 197.097656 27.9375 198.375 C 26.808594 199.617188 25.714844 200.890625 24.65625 202.195312 C 23.296875 203.875 21.902344 205.511719 20.484375 207.140625 L 17.378906 210.714844 C 16.796875 211.390625 16.214844 212.066406 15.632812 212.742188 L 15.09375 213.363281 C 14.671875 213.855469 14.273438 214.363281 13.875 214.875 L 13.875 215.625 C 24.960938 220.5 24.960938 220.5 36.066406 225.332031 L 37.433594 225.921875 L 38.140625 226.226562 C 42.183594 227.976562 46.222656 229.738281 50.261719 231.496094 C 55.539062 233.789062 55.539062 233.789062 60.816406 236.078125 L 62.179688 236.667969 L 63.492188 237.234375 C 68.234375 239.285156 72.960938 241.363281 77.691406 243.441406 C 81.789062 245.246094 85.890625 247.035156 90 248.8125 C 94.445312 250.734375 98.882812 252.671875 103.3125 254.625 C 108.207031 256.777344 113.105469 258.917969 118.011719 261.039062 C 123.363281 263.355469 128.707031 265.6875 134.050781 268.019531 C 136.207031 268.957031 138.363281 269.898438 140.519531 270.835938 L 144.140625 272.414062 L 145.039062 272.804688 C 148.617188 274.363281 152.195312 275.929688 155.773438 277.5 L 156.84375 277.96875 C 158.558594 278.722656 160.273438 279.476562 161.988281 280.234375 L 164.691406 281.421875 C 165.417969 281.742188 166.148438 282.058594 166.875 282.375 L 167.933594 282.835938 C 168.78125 283.191406 168.78125 283.191406 169.871094 283.089844 C 171.261719 282.671875 171.910156 282.074219 172.945312 281.0625 L 174.023438 280.039062 L 174.574219 279.511719 C 175.765625 278.40625 177.050781 277.402344 178.320312 276.382812 C 179.078125 275.765625 179.824219 275.140625 180.5625 274.5 L 181.167969 273.984375 C 181.746094 273.484375 182.324219 272.980469 182.898438 272.472656 L 184.007812 271.523438 L 185.042969 270.621094 L 186 270 C 186.757812 270 186.757812 270 187.5 270.375 C 188.402344 271.03125 188.402344 271.03125 189.398438 271.875 L 190.507812 272.804688 L 191.625 273.75 C 192.28125 274.28125 192.9375 274.8125 193.59375 275.34375 C 195.582031 276.96875 197.519531 278.648438 199.453125 280.339844 C 199.898438 280.730469 200.347656 281.117188 200.800781 281.503906 C 201.253906 281.898438 201.695312 282.308594 202.125 282.730469 L 202.875 283.125 C 204.824219 282.972656 206.4375 282.4375 208.195312 281.625 L 208.96875 281.277344 C 209.523438 281.027344 210.078125 280.773438 210.628906 280.523438 C 211.828125 279.976562 213.03125 279.433594 214.234375 278.894531 L 216.132812 278.039062 C 219.472656 276.53125 222.832031 275.070312 226.195312 273.609375 L 229.875 272.007812 L 230.800781 271.605469 C 233.039062 270.632812 235.273438 269.652344 237.503906 268.667969 L 238.480469 268.242188 L 240.429688 267.382812 C 245.730469 265.046875 251.039062 262.746094 256.363281 260.472656 C 261.480469 258.285156 266.578125 256.054688 271.671875 253.8125 L 273.625 252.953125 L 274.605469 252.523438 C 278.304688 250.894531 282.011719 249.28125 285.71875 247.667969 C 290.125 245.75 294.53125 243.824219 298.929688 241.882812 C 304.285156 239.523438 309.65625 237.195312 315.039062 234.894531 C 319.019531 233.195312 322.992188 231.464844 326.953125 229.710938 C 331.136719 227.859375 335.324219 226.023438 339.523438 224.210938 C 340.398438 223.832031 341.269531 223.453125 342.144531 223.074219 C 344.6875 221.972656 347.230469 220.878906 349.789062 219.8125 C 350.847656 219.367188 351.910156 218.917969 352.96875 218.472656 C 353.464844 218.261719 353.960938 218.058594 354.457031 217.851562 C 355.136719 217.574219 355.816406 217.289062 356.492188 217 L 357.644531 216.523438 L 358.5 216 C 358.917969 215.285156 358.917969 215.285156 358.875 214.5 C 358.253906 213.636719 357.582031 212.816406 356.859375 212.039062 C 356.4375 211.566406 356.015625 211.09375 355.59375 210.617188 L 354.960938 209.910156 C 354.183594 209.035156 353.445312 208.125 352.710938 207.210938 C 350.980469 205.078125 349.175781 203.007812 347.371094 200.933594 C 346.195312 199.578125 345.019531 198.21875 343.851562 196.851562 L 343.292969 196.199219 L 342.179688 194.898438 C 341.433594 194.027344 340.6875 193.152344 339.9375 192.28125 L 338.816406 190.972656 C 337.863281 189.863281 336.914062 188.753906 335.960938 187.648438 C 334.238281 185.648438 332.527344 183.644531 330.867188 181.59375 C 329.535156 179.949219 328.136719 178.382812 326.710938 176.816406 C 325.875 175.875 325.074219 174.910156 324.28125 173.929688 C 322.929688 172.261719 321.542969 170.628906 320.132812 169.007812 C 319.503906 168.285156 318.875 167.5625 318.246094 166.839844 C 315.917969 164.164062 313.601562 161.476562 311.367188 158.71875 C 310.035156 157.078125 308.640625 155.511719 307.21875 153.949219 C 306.046875 152.632812 304.949219 151.261719 303.84375 149.894531 C 303.023438 148.90625 302.179688 147.949219 301.3125 147 C 299.878906 145.425781 298.53125 143.796875 297.195312 142.144531 C 296.089844 140.804688 294.953125 139.496094 293.8125 138.1875 C 292.378906 136.542969 290.964844 134.890625 289.59375 133.195312 C 288.535156 131.890625 287.441406 130.617188 286.3125 129.375 C 285.183594 128.132812 284.089844 126.859375 283.03125 125.554688 C 281.074219 123.140625 279.03125 120.804688 276.992188 118.460938 C 275.464844 116.699219 273.953125 114.925781 272.4375 113.15625 C 271.863281 112.484375 271.289062 111.816406 270.710938 111.148438 C 268.988281 109.148438 267.277344 107.144531 265.617188 105.09375 C 264.285156 103.449219 262.886719 101.882812 261.460938 100.316406 C 260.332031 99.042969 259.265625 97.71875 258.195312 96.394531 C 257.089844 95.054688 255.953125 93.746094 254.8125 92.4375 C 253.378906 90.792969 251.964844 89.140625 250.59375 87.445312 C 249.535156 86.140625 248.441406 84.867188 247.3125 83.625 C 246.183594 82.382812 245.089844 81.109375 244.03125 79.804688 C 242.074219 77.390625 240.03125 75.054688 237.992188 72.710938 C 236.464844 70.949219 234.953125 69.175781 233.4375 67.40625 C 232.863281 66.734375 232.289062 66.066406 231.710938 65.398438 L 230.554688 64.054688 L 229.988281 63.398438 C 229.105469 62.371094 228.234375 61.332031 227.394531 60.265625 L 226.5 59.132812 L 225.726562 58.128906 C 225.058594 57.351562 225.058594 57.351562 224.242188 56.996094 L 223.5 57 C 222.757812 57.523438 222.757812 57.523438 222.09375 58.3125 C 221.113281 59.359375 220.132812 60.355469 219.046875 61.289062 C 217.257812 62.832031 215.503906 64.414062 213.75 66 C 210.191406 69.214844 210.191406 69.214844 208.546875 70.640625 C 207.078125 71.917969 205.644531 73.234375 204.210938 74.554688 C 202.703125 75.941406 201.183594 77.320312 199.65625 78.6875 C 199.058594 79.222656 198.460938 79.761719 197.867188 80.300781 C 195.417969 82.523438 192.921875 84.691406 190.390625 86.820312 C 189.9375 87.210938 189.496094 87.613281 189.058594 88.023438 L 188.371094 88.660156 L 187.753906 89.246094 L 187.125 89.625 C 186.355469 89.542969 186.355469 89.542969 185.625 89.25 C 184.722656 88.511719 184.722656 88.511719 183.726562 87.5625 C 182.308594 86.226562 180.863281 84.960938 179.34375 83.742188 C 177.929688 82.601562 176.628906 81.425781 175.371094 80.121094 C 174.5 79.25 173.570312 78.460938 172.636719 77.65625 C 171.511719 76.664062 170.410156 75.644531 169.3125 74.625 C 167.773438 73.199219 166.222656 71.789062 164.632812 70.414062 C 163.683594 69.582031 162.746094 68.726562 161.8125 67.875 C 160.636719 66.800781 159.453125 65.734375 158.25 64.6875 C 157.046875 63.640625 155.863281 62.574219 154.6875 61.5 L 153.632812 60.542969 C 152.996094 59.964844 152.363281 59.382812 151.734375 58.800781 L 150.9375 58.078125 L 150.246094 57.441406 L 149.625 57 Z M 285 261.375 C 284.234375 264.109375 283.285156 266.726562 282.222656 269.355469 L 281.734375 270.578125 C 281.207031 271.894531 280.679688 273.207031 280.148438 274.523438 L 279.316406 276.589844 C 276.039062 284.765625 272.726562 292.925781 269.378906 301.070312 C 268.582031 303.007812 267.792969 304.945312 267.011719 306.886719 C 266.574219 307.976562 266.128906 309.066406 265.683594 310.15625 C 265.398438 310.867188 265.113281 311.578125 264.832031 312.289062 C 263.773438 314.859375 262.625 316.8125 260.625 318.75 L 259.695312 319.664062 C 257.757812 321.375 255.78125 323.03125 253.769531 324.65625 C 252.457031 325.742188 251.207031 326.886719 249.949219 328.03125 C 248.972656 328.898438 247.976562 329.722656 246.960938 330.539062 C 245.171875 331.988281 243.476562 333.515625 241.78125 335.074219 C 240.445312 336.273438 239.050781 337.394531 237.65625 338.519531 C 236.234375 339.699219 234.886719 340.953125 233.527344 342.203125 C 232.539062 343.089844 231.523438 343.933594 230.484375 344.765625 C 228.597656 346.28125 226.835938 347.898438 225.089844 349.570312 C 224.570312 350.0625 224.039062 350.53125 223.5 351 L 222.75 351 C 223.644531 348.167969 224.746094 345.445312 225.890625 342.703125 L 226.492188 341.253906 C 227.015625 340 227.542969 338.742188 228.066406 337.484375 L 228.945312 335.378906 C 230.25 332.261719 231.558594 329.144531 232.871094 326.027344 L 234.125 323.042969 C 234.914062 321.160156 235.707031 319.277344 236.5 317.394531 C 236.8125 316.652344 237.125 315.910156 237.4375 315.164062 C 237.882812 314.113281 238.324219 313.058594 238.769531 312.007812 L 239.191406 311.003906 C 240.136719 308.761719 241.160156 306.554688 242.253906 304.378906 C 242.695312 303.1875 242.753906 302.386719 242.625 301.125 C 242.222656 299.933594 242.222656 299.933594 241.636719 298.722656 L 241.328125 298.046875 C 241.109375 297.574219 240.890625 297.101562 240.667969 296.628906 C 240.210938 295.648438 239.765625 294.667969 239.316406 293.6875 C 239.097656 293.203125 238.875 292.71875 238.65625 292.238281 C 237.84375 290.464844 237.054688 288.683594 236.320312 286.875 L 235.820312 285.65625 C 235.496094 284.617188 235.476562 283.828125 235.5 282.75 C 239.410156 280.734375 243.390625 278.9375 247.429688 277.195312 L 250.335938 275.9375 C 251.003906 275.648438 251.671875 275.355469 252.339844 275.066406 C 255.632812 273.640625 258.914062 272.195312 262.195312 270.75 C 267.234375 268.535156 272.273438 266.324219 277.332031 264.140625 C 277.90625 263.894531 278.484375 263.644531 279.0625 263.390625 C 279.851562 263.050781 280.644531 262.707031 281.433594 262.367188 L 282.785156 261.785156 C 283.875 261.375 283.875 261.375 285 261.375 M 88.125 261.375 C 90.128906 261.597656 91.746094 262.273438 93.5625 263.089844 L 94.492188 263.503906 C 95.496094 263.949219 96.5 264.394531 97.5 264.84375 L 99.597656 265.773438 C 100.65625 266.242188 101.710938 266.710938 102.769531 267.179688 C 105.667969 268.464844 108.578125 269.734375 111.492188 270.984375 C 116.234375 273.03125 120.960938 275.125 125.679688 277.226562 L 126.484375 277.585938 C 127.015625 277.820312 127.542969 278.058594 128.070312 278.292969 C 129.5 278.933594 130.9375 279.566406 132.378906 280.183594 L 133.316406 280.589844 C 133.914062 280.847656 134.511719 281.101562 135.113281 281.355469 C 135.835938 281.671875 136.546875 282.019531 137.25 282.375 L 138 283.5 C 137.800781 284.351562 137.800781 284.351562 137.386719 285.355469 L 136.921875 286.496094 L 136.40625 287.71875 L 135.890625 288.976562 C 135.011719 291.109375 134.097656 293.230469 133.148438 295.335938 L 132.625 296.507812 C 132.292969 297.242188 131.953125 297.980469 131.609375 298.710938 L 131.152344 299.722656 L 130.742188 300.601562 C 130.414062 301.808594 130.5625 302.535156 130.875 303.75 C 131.285156 304.867188 131.761719 305.953125 132.246094 307.039062 L 132.671875 308.011719 C 132.972656 308.707031 133.277344 309.398438 133.582031 310.089844 C 134.402344 311.953125 135.214844 313.820312 136.023438 315.6875 L 136.527344 316.84375 C 138.425781 321.210938 140.246094 325.609375 142.058594 330.015625 L 142.832031 331.890625 L 143.214844 332.820312 C 144.140625 335.0625 145.082031 337.300781 146.035156 339.535156 L 147.226562 342.34375 C 147.480469 342.9375 147.734375 343.53125 147.988281 344.125 C 148.339844 344.9375 148.6875 345.75 149.03125 346.566406 L 149.347656 347.289062 C 149.597656 347.886719 149.800781 348.507812 150 349.125 C 149.875 350.035156 149.875 350.035156 149.625 350.625 L 149.152344 350.207031 C 147.5 348.757812 145.835938 347.320312 144.164062 345.890625 C 142.289062 344.289062 140.425781 342.679688 138.5625 341.0625 C 136.753906 339.492188 134.945312 337.929688 133.125 336.375 C 131.070312 334.617188 129.023438 332.847656 126.980469 331.074219 C 125.371094 329.679688 123.753906 328.289062 122.132812 326.90625 C 120.328125 325.359375 118.546875 323.785156 116.792969 322.183594 C 115.46875 321.019531 114.089844 319.925781 112.703125 318.839844 C 110.492188 316.890625 109.417969 314.964844 108.355469 312.261719 L 107.929688 311.210938 C 107.464844 310.0625 107.007812 308.910156 106.546875 307.757812 C 106.21875 306.941406 105.890625 306.125 105.558594 305.308594 C 104.859375 303.570312 104.160156 301.832031 103.464844 300.09375 C 102.367188 297.359375 101.265625 294.625 100.160156 291.890625 C 98.875 288.714844 97.59375 285.53125 96.3125 282.351562 C 94.867188 278.761719 93.414062 275.175781 91.953125 271.589844 L 91.542969 270.582031 C 90.925781 269.066406 90.308594 267.550781 89.6875 266.035156 L 89.050781 264.480469 L 88.503906 263.144531 C 88.125 262.125 88.125 262.125 88.125 261.375 "/><path style=" stroke:none;fill-rule:nonzero;fill:#c901fb;fill-opacity:1;" d="M 342.75 76.875 L 343.5 77.25 C 344.023438 80.453125 344.046875 83.738281 344.1875 86.976562 L 344.273438 88.902344 C 344.335938 90.277344 344.398438 91.65625 344.457031 93.03125 C 344.554688 95.214844 344.652344 97.398438 344.753906 99.578125 C 344.90625 103.035156 345.0625 106.488281 345.21875 109.945312 C 345.492188 116.121094 345.769531 122.300781 346.046875 128.476562 C 346.144531 130.640625 346.242188 132.804688 346.339844 134.96875 C 346.398438 136.320312 346.460938 137.675781 346.519531 139.027344 L 346.601562 140.894531 C 346.765625 144.683594 346.984375 148.46875 347.25 152.25 C 346.050781 151.679688 345.242188 151.082031 344.300781 150.136719 L 343.480469 149.316406 L 342.632812 148.453125 L 341.796875 147.617188 C 340.511719 146.320312 339.261719 145.011719 338.070312 143.628906 C 336.589844 141.914062 334.988281 140.335938 333.375 138.75 C 331.503906 136.910156 329.691406 135.054688 327.980469 133.066406 C 327.078125 132.035156 326.105469 131.082031 325.125 130.125 C 323.902344 128.933594 322.734375 127.726562 321.621094 126.433594 C 320.179688 124.769531 318.632812 123.230469 317.0625 121.6875 C 315.234375 119.894531 313.464844 118.082031 311.800781 116.136719 C 311.152344 115.386719 310.464844 114.6875 309.75 114 C 310.238281 112.570312 310.78125 111.722656 311.882812 110.695312 C 312.917969 109.699219 313.902344 108.695312 314.835938 107.601562 C 315.664062 106.636719 316.53125 105.707031 317.4375 104.8125 C 318.550781 103.714844 319.578125 102.5625 320.601562 101.378906 C 322.125 99.644531 323.710938 97.960938 325.28125 96.265625 C 326.425781 95.027344 327.570312 93.789062 328.714844 92.550781 C 330.113281 91.039062 331.503906 89.519531 332.890625 88 C 333.859375 86.941406 334.835938 85.890625 335.820312 84.851562 C 338.25 82.273438 340.609375 79.703125 342.75 76.875 "/><path style=" stroke:none;fill-rule:nonzero;fill:#5c00fe;fill-opacity:1;" d="M 29.625 77.25 C 30.738281 77.78125 31.480469 78.277344 32.316406 79.1875 L 32.992188 79.914062 L 33.703125 80.695312 L 35.21875 82.335938 L 35.992188 83.175781 C 36.925781 84.191406 37.867188 85.199219 38.8125 86.203125 C 41.601562 89.183594 44.359375 92.191406 47.113281 95.207031 C 49.023438 97.292969 50.941406 99.371094 52.875 101.4375 C 54.808594 103.507812 56.738281 105.582031 58.640625 107.675781 C 59.328125 108.425781 60.023438 109.164062 60.726562 109.894531 L 61.261719 110.457031 C 61.75 110.96875 62.242188 111.476562 62.738281 111.984375 L 63.375 112.875 C 63.296875 113.597656 63.296875 113.597656 63 114.375 C 62.511719 115.023438 62.511719 115.023438 61.890625 115.675781 L 61.195312 116.410156 L 60.445312 117.1875 C 60.066406 117.585938 60.066406 117.585938 59.679688 117.992188 C 57.792969 119.964844 55.871094 121.902344 53.917969 123.808594 C 53.128906 124.617188 52.367188 125.449219 51.632812 126.304688 C 49.9375 128.261719 48.089844 130.054688 46.242188 131.867188 C 44.714844 133.375 43.253906 134.941406 41.851562 136.566406 C 40.699219 137.875 39.4375 139.066406 38.191406 140.285156 C 37.390625 141.082031 36.648438 141.914062 35.914062 142.773438 C 34.304688 144.636719 32.550781 146.351562 30.796875 148.078125 C 30.15625 148.710938 29.515625 149.339844 28.878906 149.972656 L 28.03125 150.808594 C 27.351562 151.460938 27.351562 151.460938 27 152.25 L 26.25 152.25 C 26.476562 144.914062 26.757812 137.578125 27.09375 130.246094 L 27.273438 126.273438 C 27.371094 124.050781 27.472656 121.828125 27.574219 119.605469 C 27.675781 117.355469 27.777344 115.109375 27.878906 112.863281 C 28.957031 88.773438 28.957031 88.773438 29.625 77.25 "/><path style=" stroke:none;fill-rule:nonzero;fill:#fefefe;fill-opacity:1;" d="M 97.5 173.25 L 98.625 174 C 99.105469 175.007812 99.105469 175.007812 99.585938 176.308594 L 99.859375 177.027344 C 100.15625 177.820312 100.445312 178.617188 100.738281 179.414062 L 101.367188 181.09375 C 101.925781 182.597656 102.484375 184.101562 103.039062 185.605469 C 103.609375 187.15625 104.1875 188.707031 104.765625 190.253906 C 105.789062 193 106.808594 195.75 107.824219 198.5 C 108.921875 201.464844 110.023438 204.425781 111.125 207.390625 C 111.75 209.070312 112.375 210.75 113 212.429688 L 113.648438 214.179688 L 113.945312 214.984375 C 114.585938 216.71875 115.273438 218.4375 116 220.136719 C 116.394531 221.296875 116.355469 222.289062 116.25 223.5 C 113.691406 224.785156 110.976562 225.257812 108.1875 225.820312 C 107.699219 225.921875 107.207031 226.027344 106.71875 226.128906 C 104.488281 226.585938 102.414062 227.007812 100.125 226.875 C 99.328125 226.578125 99.328125 226.578125 98.65625 226.15625 L 97.875 225.675781 L 97.054688 225.140625 L 96.171875 224.582031 C 90.492188 220.949219 85.066406 216.941406 79.660156 212.925781 C 78.054688 211.734375 76.445312 210.550781 74.835938 209.367188 L 73.078125 208.074219 L 72.335938 207.527344 C 71.597656 206.976562 70.859375 206.429688 70.125 205.875 C 70.242188 205.195312 70.242188 205.195312 70.5 204.375 C 70.992188 203.800781 70.992188 203.800781 71.625 203.226562 C 72.761719 202.140625 73.757812 201.007812 74.742188 199.78125 C 75.910156 198.328125 77.113281 196.933594 78.375 195.5625 C 79.917969 193.886719 81.363281 192.152344 82.792969 190.382812 C 83.875 189.074219 85.015625 187.828125 86.15625 186.574219 C 87.023438 185.597656 87.847656 184.601562 88.664062 183.585938 C 90.105469 181.800781 91.628906 180.109375 93.183594 178.421875 C 94.6875 176.75 96.09375 175.003906 97.5 173.25 "/><path style=" stroke:none;fill-rule:nonzero;fill:#fd018a;fill-opacity:1;" d="M 165.75 103.125 L 166.875 103.125 C 167.371094 103.605469 167.371094 103.605469 167.882812 104.273438 C 168.890625 105.507812 169.960938 106.515625 171.175781 107.542969 C 172.457031 108.664062 173.695312 109.832031 174.9375 111 C 176.597656 112.554688 178.253906 114.105469 179.992188 115.574219 C 180.628906 116.140625 181.234375 116.722656 181.835938 117.320312 L 182.429688 117.898438 C 182.816406 118.273438 183.195312 118.65625 183.570312 119.042969 C 184.179688 119.652344 184.179688 119.652344 185.25 120.375 C 186.546875 120.722656 186.546875 120.722656 187.875 120.375 C 188.867188 119.734375 189.65625 118.945312 190.476562 118.101562 C 190.941406 117.648438 191.402344 117.195312 191.867188 116.742188 L 192.53125 116.082031 C 193.214844 115.414062 193.921875 114.785156 194.648438 114.164062 C 196.183594 112.839844 197.664062 111.460938 199.148438 110.085938 C 200.734375 108.617188 202.339844 107.164062 203.953125 105.726562 C 204.507812 105.222656 205.039062 104.699219 205.558594 104.15625 L 206.25 103.5 L 207 103.5 C 206.746094 106.484375 205.9375 109.324219 205.167969 112.207031 L 204.710938 113.945312 C 204.296875 115.519531 203.882812 117.089844 203.464844 118.664062 C 203.023438 120.324219 202.585938 121.984375 202.148438 123.644531 C 201.402344 126.46875 200.660156 129.285156 199.914062 132.105469 C 198.839844 136.15625 197.773438 140.207031 196.703125 144.257812 C 195.941406 147.15625 195.175781 150.054688 194.410156 152.957031 L 193.589844 156.070312 C 192.667969 159.5625 191.746094 163.050781 190.8125 166.539062 C 190.359375 168.242188 189.910156 169.949219 189.460938 171.65625 C 189.1875 172.691406 188.914062 173.726562 188.636719 174.761719 C 188.449219 175.464844 188.265625 176.167969 188.085938 176.871094 L 187.75 178.117188 L 187.464844 179.199219 L 187.125 180 L 186 180.375 L 185.816406 179.664062 C 182.824219 167.992188 179.804688 156.328125 176.71875 144.679688 C 176.652344 144.421875 176.582031 144.164062 176.511719 143.898438 C 174.558594 136.53125 172.597656 129.164062 170.628906 121.800781 C 169.859375 118.917969 169.089844 116.035156 168.320312 113.15625 C 168.003906 111.976562 167.691406 110.800781 167.375 109.621094 L 166.933594 107.972656 L 166.332031 105.71875 L 165.988281 104.441406 C 165.75 103.5 165.75 103.5 165.75 103.125 "/></g></svg>