<svg xmlns="http://www.w3.org/2000/svg" xmlns:xlink="http://www.w3.org/1999/xlink" width="500" zoomAndPan="magnify" viewBox="0 0 375 374.999991" height="500" preserveAspectRatio="xMidYMid meet" version="1.2"><g id="cd97b66bcc"><path style=" stroke:none;fill-rule:evenodd;fill:#ffffff;fill-opacity:1;" d="M 21.804688 42.9375 C 21.734375 46.339844 20.226562 77.8125 18.449219 112.875 C 16.675781 147.9375 15.292969 176.71875 15.382812 176.835938 C 15.476562 176.953125 21.242188 170.878906 28.203125 163.335938 C 35.160156 155.796875 41.027344 149.457031 41.238281 149.25 C 41.449219 149.042969 45 145.164062 49.125 140.625 C 56.082031 132.972656 70.589844 117.167969 78.726562 108.375 C 80.636719 106.3125 87.679688 98.644531 94.382812 91.332031 L 106.566406 78.042969 L 94.34375 71.898438 C 59.449219 54.363281 23.519531 36.75 22.636719 36.75 C 22.246094 36.75 21.871094 39.535156 21.804688 42.9375 M 308.0625 57.167969 C 285.476562 68.371094 267 77.804688 267 78.128906 C 267 78.75 275.988281 88.832031 286.207031 99.671875 C 289.550781 103.222656 297.792969 112.199219 304.519531 119.625 C 311.246094 127.050781 318.972656 135.503906 321.6875 138.410156 C 324.402344 141.316406 328.285156 145.535156 330.316406 147.785156 C 332.347656 150.035156 335.726562 153.730469 337.824219 156 C 341.5625 160.054688 345.296875 164.113281 349.027344 168.179688 C 353.09375 172.609375 356.667969 176.082031 356.96875 175.894531 C 357.828125 175.363281 357.648438 170.929688 352.859375 75 C 351.835938 54.582031 351.003906 37.621094 351 37.3125 C 351 37.003906 350.578125 36.761719 350.0625 36.773438 C 349.546875 36.785156 330.648438 45.960938 308.0625 57.167969 M 144.082031 55.179688 C 141.980469 57.476562 139.003906 60.933594 137.460938 62.867188 C 135.921875 64.796875 132.441406 68.90625 129.730469 72 C 127.015625 75.09375 123.972656 78.671875 122.960938 79.953125 C 121.949219 81.234375 117.226562 86.804688 112.460938 92.328125 C 105.460938 100.449219 82.890625 126.902344 76.132812 134.914062 C 75.390625 135.796875 74.632812 136.671875 73.863281 137.539062 C 73.445312 137.996094 70.410156 141.582031 67.113281 145.5 C 63.820312 149.417969 60.949219 152.792969 60.734375 153 C 60.296875 153.421875 44.519531 171.917969 38.671875 178.875 C 36.589844 181.351562 34.707031 183.542969 34.492188 183.75 C 34.277344 183.957031 31.40625 187.296875 28.113281 191.167969 C 23.671875 196.382812 19.21875 201.589844 14.75 206.78125 C 10.417969 211.8125 7.542969 215.777344 7.777344 216.390625 C 7.996094 216.964844 9.460938 218.074219 11.027344 218.863281 C 13.875 220.292969 41 232.171875 67.875 243.757812 C 81.765625 249.746094 99.335938 257.46875 105.375 260.242188 C 107.023438 260.996094 110.738281 262.609375 113.625 263.820312 C 123.457031 267.949219 150.347656 279.625 159.75 283.847656 C 165.300781 286.339844 169.738281 287.902344 170.625 287.675781 C 171.449219 287.464844 175.261719 284.402344 179.097656 280.875 C 183.390625 276.925781 186.417969 274.664062 186.972656 275 C 187.46875 275.300781 190.988281 278.347656 194.789062 281.773438 C 198.59375 285.195312 202.195312 288 202.792969 288 C 203.390625 288 208.042969 286.109375 213.128906 283.800781 C 218.214844 281.492188 231.65625 275.625 243 270.757812 C 261.628906 262.769531 280.03125 254.742188 295.5 247.851562 C 301.90625 245 310.800781 241.160156 320.625 237.011719 C 324.335938 235.445312 334.800781 230.894531 343.875 226.898438 C 352.949219 222.902344 361.277344 219.300781 362.378906 218.890625 C 364.910156 217.949219 365.582031 216.234375 364.222656 214.207031 C 363.414062 213 339.082031 184.34375 323.710938 166.5 C 318.171875 160.015625 312.636719 153.527344 307.109375 147.035156 C 299.128906 137.664062 291.132812 128.304688 283.125 118.957031 C 273.375 107.59375 251.882812 82.289062 239.746094 67.875 C 230.726562 57.164062 225.023438 51 224.136719 51 C 223.617188 51 212.890625 59.894531 211.5 61.480469 C 209.960938 63.234375 186.792969 84 186.375 84 C 186.082031 84 180.421875 79.023438 173.796875 72.9375 C 157.90625 58.347656 149.472656 51 148.605469 51 C 148.21875 51 146.183594 52.878906 144.082031 55.179688 M 136.125 70.269531 C 129.523438 77.96875 121.257812 87.699219 117.75 91.898438 C 114.242188 96.097656 110.023438 101.054688 108.375 102.917969 C 106.726562 104.777344 100.3125 112.308594 94.125 119.648438 C 87.9375 126.992188 80.339844 135.894531 77.246094 139.4375 C 70.011719 147.710938 61.886719 157.21875 46.117188 175.875 C 39.140625 184.125 31.058594 193.601562 28.15625 196.929688 C 25.25 200.261719 22.199219 203.804688 21.371094 204.804688 C 19.816406 206.683594 18.253906 208.554688 16.683594 210.421875 C 14.933594 212.511719 13.5 214.5625 13.5 214.976562 C 13.5 215.953125 16.867188 217.589844 33.375 224.644531 C 40.800781 227.816406 48.226562 231.019531 49.875 231.757812 C 60.335938 236.46875 70.835938 241.089844 81.375 245.625 C 111.632812 258.664062 124.679688 264.347656 145.671875 273.636719 C 157.9375 279.0625 168.523438 283.5 169.195312 283.5 C 170.148438 283.5 177.925781 277.535156 180 275.214844 C 181.566406 273.464844 186.171875 270.65625 186.972656 270.960938 C 187.515625 271.171875 191.210938 274.078125 195.1875 277.421875 C 199.167969 280.765625 202.914062 283.5 203.519531 283.5 C 204.121094 283.5 210.46875 280.9375 217.621094 277.804688 C 224.773438 274.667969 232.988281 271.097656 235.875 269.867188 C 238.761719 268.636719 244.332031 266.1875 248.25 264.425781 C 252.167969 262.660156 257.738281 260.195312 260.625 258.941406 C 276.152344 252.207031 306.664062 238.898438 334.5 226.714844 C 343.367188 222.835938 352.429688 218.945312 354.636719 218.070312 C 356.84375 217.199219 358.820312 216.035156 359.03125 215.484375 C 359.390625 214.546875 357.464844 211.574219 354.257812 208.125 C 353.492188 207.300781 349.160156 202.238281 344.632812 196.875 C 340.105469 191.511719 331.046875 180.882812 324.503906 173.25 C 317.960938 165.617188 312.042969 158.699219 311.355469 157.875 C 308.523438 154.480469 292.40625 135.558594 285.757812 127.828125 C 281.835938 123.261719 277.105469 117.714844 275.25 115.496094 C 273.394531 113.28125 267.363281 106.214844 261.847656 99.796875 C 257.972656 95.28125 254.09375 90.765625 250.214844 86.25 C 249.332031 85.21875 246.09375 81.335938 243.019531 77.625 C 239.945312 73.914062 236.070312 69.355469 234.402344 67.5 C 232.253906 65.089844 230.136719 62.652344 228.046875 60.1875 C 226.21875 58.023438 224.433594 56.25 224.082031 56.25 C 223.445312 56.25 202.628906 74.414062 192.109375 84.148438 L 186.59375 89.253906 L 184.234375 87.285156 C 182.9375 86.203125 179.042969 82.742188 175.578125 79.597656 C 159.371094 64.863281 149.558594 56.300781 148.875 56.289062 C 148.460938 56.28125 142.726562 62.574219 136.125 70.269531 M 144.226562 76.234375 C 142.65625 78.152344 138.84375 82.652344 135.75 86.234375 C 130.429688 92.394531 120.238281 104.359375 101.601562 126.320312 C 97.078125 131.652344 90.71875 139.078125 87.472656 142.820312 C 79.703125 151.777344 79.664062 151.820312 70.160156 163.125 C 65.652344 168.488281 57.722656 177.746094 52.542969 183.703125 C 37.105469 201.449219 29.96875 210.269531 30.566406 210.867188 C 31.523438 211.820312 46.917969 219.230469 62.25 226.113281 C 71.421875 230.238281 80.582031 234.390625 89.730469 238.574219 C 96.800781 241.816406 107.261719 246.523438 112.980469 249.035156 C 124.441406 254.070312 143.910156 262.902344 151.5 266.503906 C 153.34375 267.382812 155.1875 268.257812 157.03125 269.128906 C 158.542969 269.839844 156.863281 267.34375 155.117188 266.28125 C 154.070312 265.644531 150.691406 263.101562 147.609375 260.625 C 144.53125 258.148438 138.253906 253.257812 133.667969 249.75 C 129.082031 246.242188 125.308594 242.976562 125.289062 242.488281 C 125.242188 241.46875 124.976562 241.554688 136.875 238.789062 C 141.824219 237.636719 145.96875 236.640625 146.085938 236.574219 C 146.351562 236.421875 143.132812 227.652344 133.867188 203.25 C 129.871094 192.730469 123.929688 176.789062 120.667969 167.824219 L 114.730469 151.519531 L 116.519531 147.199219 C 117.507812 144.820312 123.292969 131.398438 129.375 117.375 C 145.480469 80.253906 145.503906 80.199219 146.992188 76.3125 C 147.742188 74.351562 148.066406 72.75 147.714844 72.75 C 147.363281 72.75 145.792969 74.316406 144.226562 76.234375 M 227.390625 80.0625 C 229.03125 84.085938 231.527344 89.851562 232.9375 92.878906 C 234.347656 95.90625 235.5 98.53125 235.5 98.710938 C 235.5 98.886719 240.597656 110.847656 246.832031 125.289062 L 258.160156 151.546875 L 254.984375 159.960938 C 253.238281 164.589844 250.878906 170.90625 249.746094 174 C 243.742188 190.363281 239.027344 203.109375 235.875 211.5 C 233.855469 216.871094 231.851562 222.246094 229.863281 227.625 C 228.496094 231.335938 227.144531 234.964844 226.859375 235.6875 C 226.519531 236.550781 226.6875 236.996094 227.355469 236.988281 C 229.222656 236.96875 248.25 241.683594 248.214844 242.160156 C 248.195312 242.414062 246.421875 244 244.277344 245.683594 C 227.027344 259.203125 216.046875 268.046875 216.25 268.25 C 216.460938 268.460938 225.125 264.707031 237.75 258.941406 C 239.605469 258.09375 244.164062 256.03125 247.875 254.355469 C 253.160156 251.96875 257.433594 249.074219 267.5625 241.023438 C 274.679688 235.363281 280.5 230.472656 280.5 230.148438 C 280.5 229.824219 279.234375 229.222656 277.6875 228.8125 C 271.613281 227.199219 260.917969 225 259.160156 225 C 255.265625 225 255.472656 223.101562 260.960938 208.414062 C 263.796875 200.832031 267.941406 189.730469 270.171875 183.75 C 272.402344 177.769531 274.597656 172.875 275.054688 172.875 C 275.511719 172.875 282.148438 180.066406 289.804688 188.859375 C 308.699219 210.554688 309.199219 211.1875 308.691406 212.789062 C 308.453125 213.539062 304.164062 217.351562 299.152344 221.261719 C 294.144531 225.175781 289.164062 229.148438 288.085938 230.097656 C 287.007812 231.042969 283.171875 234.222656 279.5625 237.160156 C 275.953125 240.09375 273.160156 242.660156 273.355469 242.855469 C 273.550781 243.050781 274.15625 242.84375 274.699219 242.394531 C 275.242188 241.945312 278.371094 240.425781 281.65625 239.019531 C 284.9375 237.613281 289.144531 235.769531 291 234.925781 C 292.855469 234.078125 300.113281 230.800781 307.125 227.636719 C 330.480469 217.101562 339.40625 212.890625 341.128906 211.589844 L 342.839844 210.300781 L 335.859375 202.019531 C 332.285156 197.785156 328.714844 193.546875 325.144531 189.308594 C 323.09375 186.871094 319.023438 182.175781 316.101562 178.875 C 313.175781 175.574219 309.070312 170.792969 306.976562 168.246094 C 304.878906 165.703125 299.171875 158.953125 294.289062 153.246094 C 288.449219 146.414062 282.613281 139.582031 276.773438 132.75 C 272.019531 127.179688 267.957031 122.457031 267.75 122.25 C 267.542969 122.042969 265.6875 119.851562 263.625 117.378906 C 258.328125 111.023438 257.34375 109.863281 251.523438 103.125 C 248.675781 99.824219 245.167969 95.726562 243.734375 94.023438 C 231.835938 79.875 225.574219 72.75 225.039062 72.75 C 224.691406 72.75 225.746094 76.039062 227.390625 80.0625 M 156 78.28125 C 156 79.21875 154.582031 82.6875 150.722656 91.175781 C 149.960938 92.855469 148.847656 95.554688 148.253906 97.175781 C 147.65625 98.796875 143.214844 109.574219 138.382812 121.125 C 133.546875 132.675781 129.421875 142.710938 129.210938 143.429688 C 128.933594 144.378906 135.335938 151.304688 152.726562 168.871094 C 185.441406 201.910156 185.277344 201.75 186.445312 201.75 C 187.605469 201.75 243.25 145.921875 243.601562 144.402344 C 243.722656 143.867188 241.570312 138.074219 238.8125 131.527344 C 235.882812 124.566406 232.96875 117.597656 230.070312 110.625 C 228.015625 105.675781 225.003906 98.417969 223.375 94.5 C 221.746094 90.582031 219.539062 85.097656 218.472656 82.3125 C 217.40625 79.527344 216.292969 77.25 216.003906 77.25 C 215.710938 77.25 209.167969 82.988281 201.460938 90 C 193.757812 97.011719 187.011719 102.75 186.472656 102.75 C 185.933594 102.75 184.152344 101.484375 182.511719 99.9375 C 180.871094 98.390625 177.019531 94.894531 173.953125 92.164062 C 170.882812 89.4375 165.867188 84.964844 162.800781 82.226562 C 157.074219 77.117188 156 76.492188 156 78.28125 M 338.957031 80.8125 C 331.726562 88.78125 320.3125 101.140625 315.375 106.351562 C 312.488281 109.398438 310.011719 112.382812 309.875 112.984375 C 309.738281 113.589844 316.226562 120.953125 324.527344 129.601562 C 332.726562 138.140625 340.914062 146.734375 342.726562 148.703125 C 344.539062 150.667969 346.269531 152.019531 346.574219 151.703125 C 346.878906 151.382812 346.320312 134.925781 345.332031 115.125 C 344.347656 95.324219 343.527344 78.703125 343.519531 78.1875 C 343.484375 76.484375 342.230469 77.207031 338.957031 80.8125 M 29.699219 81.1875 C 29.484375 82.941406 29.121094 88.929688 28.894531 94.5 C 28.664062 100.070312 27.953125 115.035156 27.308594 127.757812 C 26.667969 140.480469 26.285156 151.035156 26.464844 151.214844 C 26.640625 151.390625 32.320312 145.707031 39.082031 138.582031 C 45.84375 131.453125 52.554688 124.410156 54 122.921875 C 55.984375 120.875 57.964844 118.820312 59.941406 116.761719 L 63.257812 113.304688 L 59.941406 109.707031 C 44.675781 93.144531 39.523438 87.523438 35.625 83.171875 C 33.148438 80.410156 30.890625 78.117188 30.609375 78.074219 C 30.324219 78.035156 29.914062 79.433594 29.699219 81.1875 M 165.75 104.113281 C 165.75 104.453125 166.234375 106.390625 166.824219 108.425781 C 167.414062 110.460938 169.078125 116.679688 170.523438 122.25 C 173.792969 134.851562 182.777344 168.652344 185.058594 176.933594 C 185.871094 179.882812 186.351562 180.683594 186.8125 179.859375 C 187.164062 179.234375 190.023438 168.96875 193.171875 157.050781 C 196.316406 145.128906 199.382812 133.519531 199.984375 131.25 C 205.605469 109.988281 207.058594 104.058594 206.71875 103.71875 C 206.292969 103.292969 204.320312 104.925781 193.605469 114.582031 C 188 119.632812 186.480469 120.648438 185.421875 120.046875 C 184.710938 119.640625 180.273438 115.753906 175.570312 111.40625 C 167.507812 103.957031 165.75 102.648438 165.75 104.113281 M 123.976562 155.757812 C 124.429688 156.492188 139.917969 198.488281 148.824219 223.125 C 150.164062 226.835938 155.039062 240 159.65625 252.375 C 164.273438 264.75 168.195312 275.296875 168.378906 275.8125 C 168.554688 276.328125 169.035156 276.75 169.445312 276.75 C 170.183594 276.75 181.675781 265.195312 182.097656 264.023438 C 182.222656 263.683594 180.96875 258.253906 179.3125 251.960938 C 177.65625 245.671875 176.5 240.203125 176.742188 239.8125 C 176.984375 239.421875 179.148438 241.046875 181.550781 243.425781 C 186.488281 248.3125 185.820312 248.378906 192.171875 242.335938 C 194.121094 240.484375 195.957031 239.207031 196.253906 239.503906 C 196.546875 239.800781 195.539062 245.011719 194.007812 251.082031 C 192.476562 257.15625 191.226562 262.730469 191.234375 263.46875 C 191.257812 265.398438 202.957031 277.324219 203.898438 276.375 C 204.304688 275.960938 206.382812 270.898438 208.511719 265.125 C 210.644531 259.351562 213.339844 252.09375 214.5 249 C 215.664062 245.90625 220.191406 233.496094 224.566406 221.421875 C 228.941406 209.347656 233.320312 197.367188 234.304688 194.796875 C 235.285156 192.226562 238.199219 184.386719 240.777344 177.375 C 243.351562 170.363281 246.277344 162.648438 247.273438 160.230469 C 248.273438 157.816406 248.878906 155.628906 248.621094 155.371094 C 248.363281 155.113281 234.40625 168.816406 217.609375 185.828125 C 200.808594 202.835938 186.757812 216.75 186.378906 216.75 C 186.003906 216.75 173.105469 203.949219 157.714844 188.304688 C 133.355469 163.546875 122.054688 152.644531 123.976562 155.757812 M 85.34375 186.179688 C 78.882812 193.714844 72.730469 200.789062 71.671875 201.90625 C 70.617188 203.019531 69.75 204.457031 69.75 205.097656 C 69.75 206.347656 79.660156 213.980469 92.148438 222.347656 L 99.921875 227.550781 L 106.121094 226.277344 C 109.53125 225.574219 112.996094 225 113.820312 225 C 114.640625 225 115.734375 224.496094 116.246094 223.878906 C 117.007812 222.964844 116.21875 220.210938 111.890625 208.691406 C 108.777344 200.40625 105.683594 192.109375 102.609375 183.808594 C 100.410156 177.863281 98.269531 172.882812 97.851562 172.742188 C 97.433594 172.601562 91.804688 178.648438 85.34375 186.179688 M 89.25 262.289062 C 89.25 262.792969 108.507812 310.789062 109.960938 313.914062 C 110.925781 315.980469 115.972656 320.585938 135.675781 337.367188 C 139.222656 340.386719 143.558594 344.171875 145.3125 345.777344 C 147.066406 347.382812 148.5 348.507812 148.5 348.277344 C 148.5 348.046875 144.28125 337.921875 139.125 325.769531 C 133.96875 313.621094 129.753906 302.9375 129.761719 302.03125 C 129.769531 301.121094 131.289062 296.878906 133.136719 292.605469 C 134.988281 288.332031 136.5 284.417969 136.5 283.914062 C 136.5 283.007812 132.847656 281.273438 108.917969 270.816406 C 102.203125 267.882812 95.03125 264.671875 92.980469 263.683594 C 90.929688 262.695312 89.25 262.066406 89.25 262.289062 M 282.335938 262.386719 C 281.945312 262.734375 273.355469 266.648438 263.25 271.082031 C 255.683594 274.398438 248.121094 277.71875 240.5625 281.046875 C 238.191406 282.097656 236.25 283.371094 236.25 283.882812 C 236.25 284.394531 237.933594 288.734375 239.988281 293.523438 L 243.726562 302.238281 L 240.308594 310.304688 C 238.429688 314.746094 235.179688 322.425781 233.085938 327.375 C 230.996094 332.324219 228.179688 338.992188 226.824219 342.1875 C 225.472656 345.382812 224.648438 348 224.996094 348 C 225.339844 348 225.738281 347.742188 225.875 347.425781 C 226.011719 347.109375 229.472656 343.988281 233.558594 340.488281 C 252.101562 324.621094 260.714844 317.003906 261.820312 315.5 C 262.476562 314.605469 266.761719 304.59375 271.335938 293.25 C 275.914062 281.90625 280.671875 270.179688 281.914062 267.1875 C 284 262.152344 284.117188 260.796875 282.335938 262.386719 "/></g></svg>